<?xml version="1.0" encoding="UTF-8" standalone="no"?>
<!-- Created with Inkscape (http://www.inkscape.org/) -->
<svg xmlns:dc="http://purl.org/dc/elements/1.1/" xmlns:cc="http://creativecommons.org/ns#" xmlns:rdf="http://www.w3.org/1999/02/22-rdf-syntax-ns#" xmlns:svg="http://www.w3.org/2000/svg" xmlns="http://www.w3.org/2000/svg" xmlns:xlink="http://www.w3.org/1999/xlink" xmlns:sodipodi="http://sodipodi.sourceforge.net/DTD/sodipodi-0.dtd" xmlns:inkscape="http://www.inkscape.org/namespaces/inkscape" version="1.0" width="470" height="310" id="svg2" sodipodi:version="0.32" inkscape:version="0.46" sodipodi:docname="Singapore_street_circuit_v2.svg" inkscape:output_extension="org.inkscape.output.svg.inkscape">
  <metadata id="metadata151">
    <rdf:RDF>
      <cc:Work rdf:about="">
        <dc:format>image/svg+xml</dc:format>
        <dc:type rdf:resource="http://purl.org/dc/dcmitype/StillImage"/>
      </cc:Work>
    </rdf:RDF>
  </metadata>
  <sodipodi:namedview inkscape:window-height="707" inkscape:window-width="1272" inkscape:pageshadow="2" inkscape:pageopacity="0.0" guidetolerance="10.0" gridtolerance="10.0" objecttolerance="10.0" borderopacity="1.0" bordercolor="#666666" pagecolor="#ffffff" id="base" showgrid="false" inkscape:zoom="1.39" inkscape:cx="321.14041" inkscape:cy="146.54705" inkscape:window-x="0" inkscape:window-y="25" inkscape:current-layer="svg2"/>
  <defs id="defs4">
    <inkscape:perspective sodipodi:type="inkscape:persp3d" inkscape:vp_x="0 : 155 : 1" inkscape:vp_y="0 : 1000 : 0" inkscape:vp_z="470 : 155 : 1" inkscape:persp3d-origin="235 : 103.33333 : 1" id="perspective153"/>
    <linearGradient id="linearGradient2486">
      <stop id="stop2488" style="stop-color: rgb(255, 0, 0); stop-opacity: 1;" offset="0"/>
      <stop id="stop2497" style="stop-color: rgb(255, 255, 208); stop-opacity: 1;" offset="1"/>
      <stop id="stop2490" style="stop-color: rgb(255, 0, 0); stop-opacity: 0;" offset="1"/>
    </linearGradient>
    <linearGradient x1="338.33334" y1="295.66666" x2="348.66666" y2="290.87283" id="linearGradient1379" xlink:href="#linearGradient1373" gradientUnits="userSpaceOnUse"/>
    <linearGradient id="linearGradient1373">
      <stop id="stop1375" style="stop-color: rgb(255, 0, 0); stop-opacity: 1;" offset="0"/>
      <stop id="stop1381" style="stop-color: rgb(255, 255, 208); stop-opacity: 1;" offset="1"/>
      <stop id="stop1377" style="stop-color: rgb(160, 128, 112); stop-opacity: 0;" offset="1"/>
    </linearGradient>
    <linearGradient x1="338.33334" y1="295.66666" x2="348.66666" y2="290.87283" id="linearGradient2582" xlink:href="#linearGradient1373" gradientUnits="userSpaceOnUse"/>
    <linearGradient id="linearGradient2574">
      <stop id="stop2576" style="stop-color: rgb(255, 0, 0); stop-opacity: 1;" offset="0"/>
      <stop id="stop2578" style="stop-color: rgb(255, 255, 208); stop-opacity: 1;" offset="1"/>
      <stop id="stop2580" style="stop-color: rgb(160, 128, 112); stop-opacity: 0;" offset="1"/>
    </linearGradient>
  </defs>
  <g transform="matrix(0.7, 0, 0, 0.7, -354.056, 79.3038)" id="g2588"/>
  <g transform="matrix(0.7, 0, 0, 0.7, -323.989, 61.3841)" id="g2590">
    <path d="M 1125.3775,152.74259 C 1125.0688,129.66042 1126.2724,127.75545 1124.2408,70.938149 C 1123.3831,46.951404 1101.1986,30.036813 1073.0275,28.649798 C 888.76654,29.39746 569.21351,25.650539 502.17821,29.819889 C 498.66078,30.03866 488.33604,38.031391 486.99893,50.241414 C 484.57356,72.389082 493.68399,110.73771 503.32963,149.33839 C 507.33198,165.35529 523.27124,161.63986 526.49268,149.8214 C 530.04281,136.79711 533.75344,83.429482 539.72792,69.71556 C 540.65975,67.576612 548.96374,56.176819 558.18173,56.177163 C 609.11693,56.179065 736.05643,48.033876 743.85264,53.472863 C 750.61048,55.712384 754.46636,62.233396 757.67621,73.66143 C 760.91386,85.18842 752.03251,97.384407 740.82159,103.81321 C 711.56654,120.58925 570.77113,130.83016 555.22029,143.60966 C 522.94902,170.12981 557.34901,204.51328 587.18435,192.76753 C 713.28869,143.12205 795.49378,123.98081 879.95033,89.593411 C 898.11585,82.197125 901.80895,103.28322 920.2592,132.41169 C 925.23554,140.26811 949.70851,113.62953 963.19181,125.11941 C 972.24698,132.83583 996.73686,194.20275 1020.9831,223.51117 C 1040.2134,246.7564 1068.9554,225.36395 1097.5256,193.94273 C 1106.0233,184.59713 1124.8861,169.39421 1125.3775,152.74259 z" id="path2593" style="fill: none; fill-rule: evenodd; stroke: rgb(0, 0, 0); stroke-width: 8.098; stroke-linecap: butt; stroke-linejoin: miter; stroke-miterlimit: 4; stroke-dasharray: none; stroke-opacity: 1;" sodipodi:nodetypes="cscsssssscsssssssssc"/>
  </g>
  <g transform="matrix(0.7, 0, 0, 0.7, -377.857, -54.9718)" id="layer1">
    <text x="671.528" y="261.123" id="text8733" xml:space="preserve" style="font-size: 12px; font-style: normal; font-weight: normal; fill: rgb(0, 0, 0); fill-opacity: 1; stroke: none; stroke-width: 1px; stroke-linecap: butt; stroke-linejoin: miter; stroke-opacity: 1; font-family: Arial Narrow;"> </text>
  </g>
  <g transform="matrix(0.461683, 0, 0, 0.461683, -235.841, 93.8973)" id="layer2"/>
  <path d="M 167.58293,173.95434 L 169.46707,179.96369 L 157.2396,180.38561 L 167.58293,173.95434 z" id="path5241" style="fill: rgb(255, 0, 0); fill-opacity: 1; fill-rule: evenodd; stroke: none; stroke-width: 1px; stroke-linecap: butt; stroke-linejoin: miter; stroke-opacity: 1;"/>
  <path d="M 141.28084,189.81124 C 141.27782,190.91768 140.37872,191.81235 139.27226,191.80989 C 138.16582,191.80743 137.27069,190.90879 137.27259,189.80234 C 137.27448,188.69588 138.17267,187.8003 139.27912,187.80163 C 140.38558,187.80296 141.28161,188.70069 141.28085,189.80714" id="path5247" style="fill: rgb(255, 255, 255); fill-opacity: 1; fill-rule: nonzero; stroke: none; stroke-width: 1.3; stroke-miterlimit: 4; stroke-dasharray: none; stroke-opacity: 1;"/>
  <path d="M 390.68791,69.508329 C 390.68489,70.614769 389.78578,71.509439 388.67933,71.506979 C 387.57288,71.504519 386.67776,70.605879 386.67966,69.499429 C 386.68155,68.392969 387.57974,67.497389 388.68619,67.498719 C 389.79264,67.500049 390.68868,68.397779 390.68792,69.504229" id="path5261" style="fill: rgb(255, 255, 255); fill-opacity: 1; fill-rule: nonzero; stroke: none; stroke-width: 1.3; stroke-miterlimit: 4; stroke-dasharray: none; stroke-opacity: 1;"/>
  <path d="M 427.35006,88.887783 C 427.34703,89.994233 426.44793,90.888893 425.34148,90.886433 C 424.23504,90.883983 423.3399,89.985333 423.3418,88.878883 C 423.34369,87.772433 424.24189,86.876853 425.34834,86.878183 C 426.45479,86.879503 427.35082,87.777233 427.35006,88.883683" id="path5281" style="fill: rgb(255, 255, 255); fill-opacity: 1; fill-rule: nonzero; stroke: none; stroke-width: 1.3; stroke-miterlimit: 4; stroke-dasharray: none; stroke-opacity: 1;"/>
  <text x="205.745" y="421.392" id="text5299" xml:space="preserve" style="font-size: 9px; font-style: normal; font-variant: normal; font-weight: normal; font-stretch: normal; text-align: center; line-height: 125%; text-anchor: middle; fill: rgb(0, 0, 0); fill-opacity: 1; stroke: none; stroke-width: 1px; stroke-linecap: butt; stroke-linejoin: miter; stroke-opacity: 1; font-family: Bitstream Vera Sans;" sodipodi:linespacing="125%"><tspan x="205.745" y="421.392" id="tspan5303" style="font-size: 9px; font-style: normal; font-variant: normal; font-weight: normal; font-stretch: normal; text-align: center; line-height: 125%; text-anchor: middle; font-family: Bitstream Vera Sans;">Raffles</tspan><tspan x="205.745" y="432.642" id="tspan5307" style="font-size: 9px; font-style: normal; font-variant: normal; font-weight: normal; font-stretch: normal; text-align: center; line-height: 125%; text-anchor: middle; font-family: Bitstream Vera Sans;">Avenue</tspan></text>
  <text x="68.6101" y="216.465" id="text5353" xml:space="preserve" style="font-size: 9px; font-style: normal; font-variant: normal; font-weight: normal; font-stretch: normal; text-align: center; line-height: 125%; text-anchor: middle; fill: rgb(0, 0, 0); fill-opacity: 1; stroke: none; stroke-width: 1px; stroke-linecap: butt; stroke-linejoin: miter; stroke-opacity: 1; font-family: Bitstream Vera Sans;" sodipodi:linespacing="125%">Curva Traliccio</text>
  <path d="M 451.80525,130.37938 L 458.10303,130.40051 L 454.80791,142.18314 L 451.80525,130.37938 z" id="path5367" style="fill: rgb(255, 0, 0); fill-opacity: 1; fill-rule: evenodd; stroke: none; stroke-width: 1px; stroke-linecap: butt; stroke-linejoin: miter; stroke-opacity: 1;"/>
  <path d="M 209.96784,75.429345 L 210.42823,69.148393 L 221.95234,73.257367 L 209.96784,75.429345 z" id="path3660" style="fill: rgb(255, 0, 0); fill-opacity: 1; fill-rule: evenodd; stroke: none; stroke-width: 1px; stroke-linecap: butt; stroke-linejoin: miter; stroke-opacity: 1;"/>
  <circle cx="189.022" cy="265.32599" r="9.7150002" transform="matrix(0.671066, 0, 0, 0.671066, 164.544, -36.5147)" id="circle3134" style="fill: rgb(255, 255, 255); stroke: rgb(0, 0, 0);" sodipodi:cx="189.022" sodipodi:cy="265.32599" sodipodi:rx="9.7150002" sodipodi:ry="9.7150002"/>
  <text x="285.988" y="145.086" id="text3136" style="font-size: 9.41603px; font-family: Arial-BoldMT;">11</text>
  <circle cx="189.022" cy="265.32599" r="9.7150002" transform="matrix(0.671066, 0, 0, 0.671066, 199.571, -41.4151)" id="circle3138" style="fill: rgb(255, 255, 255); stroke: rgb(0, 0, 0);" sodipodi:cx="189.022" sodipodi:cy="265.32599" sodipodi:rx="9.7150002" sodipodi:ry="9.7150002"/>
  <text x="320.751" y="139.658" id="text3140" style="font-size: 9.41603px; font-family: Arial-BoldMT;">10</text>
  <circle cx="189.022" cy="265.32599" r="9.7150002" transform="matrix(0.671066, 0, 0, 0.671066, 224.151, -45.8833)" id="circle3142" style="fill: rgb(255, 255, 255); stroke: rgb(0, 0, 0);" sodipodi:cx="189.022" sodipodi:cy="265.32599" sodipodi:rx="9.7150002" sodipodi:ry="9.7150002"/>
  <text x="348.23" y="135.454" id="text3144" style="font-size: 9.41603px; font-family: Arial-BoldMT;">9</text>
  <circle cx="189.022" cy="265.32599" r="9.7150002" transform="matrix(0.671066, 0, 0, 0.671066, 276.426, 32.2348)" id="circle3146" style="fill: rgb(255, 255, 255); stroke: rgb(0, 0, 0);" sodipodi:cx="189.022" sodipodi:cy="265.32599" sodipodi:rx="9.7150002" sodipodi:ry="9.7150002"/>
  <text x="400.504" y="213.572" id="text3148" style="font-size: 9.41603px; font-family: Arial-BoldMT;">8</text>
  <circle cx="189.022" cy="265.32599" r="9.7150002" transform="matrix(0.671066, 0, 0, 0.671066, 323.744, -9.19855)" id="circle3150" style="fill: rgb(255, 255, 255); stroke: rgb(0, 0, 0);" sodipodi:cx="189.022" sodipodi:cy="265.32599" sodipodi:rx="9.7150002" sodipodi:ry="9.7150002"/>
  <text x="447.824" y="172.138" id="text3152" style="font-size: 9.41603px; font-family: Arial-BoldMT;">7</text>
  <circle cx="189.022" cy="265.32599" r="9.7150002" transform="matrix(0.671066, 0, 0, 0.671066, 326.701, -100.849)" id="circle3154" style="fill: rgb(255, 255, 255); stroke: rgb(0, 0, 0);" sodipodi:cx="189.022" sodipodi:cy="265.32599" sodipodi:rx="9.7150002" sodipodi:ry="9.7150002"/>
  <text x="450.78" y="80.4885" id="text3156" style="font-size: 9.41603px; font-family: Arial-BoldMT;">6</text>
  <circle cx="189.022" cy="265.32599" r="9.7150002" transform="matrix(0.671066, 0, 0, 0.671066, -114.805, -98.0472)" id="circle3158" style="fill: rgb(255, 255, 255); stroke: rgb(0, 0, 0);" sodipodi:cx="189.022" sodipodi:cy="265.32599" sodipodi:rx="9.7150002" sodipodi:ry="9.7150002"/>
  <text x="9.27368" y="83.2898" id="text3160" style="font-size: 9.41603px; font-family: Arial-BoldMT;">5</text>
  <circle cx="189.022" cy="265.32599" r="9.7150002" transform="matrix(0.671066, 0, 0, 0.671066, -91.5284, -27.5629)" id="circle3162" style="fill: rgb(255, 255, 255); stroke: rgb(0, 0, 0);" sodipodi:cx="189.022" sodipodi:cy="265.32599" sodipodi:rx="9.7150002" sodipodi:ry="9.7150002"/>
  <text x="32.5506" y="153.774" id="text3164" style="font-size: 9.41603px; font-family: Arial-BoldMT;">4</text>
  <circle cx="189.022" cy="265.32599" r="9.7150002" transform="matrix(0.671066, 0, 0, 0.671066, -81.5207, -78.2133)" id="circle3166" style="fill: rgb(255, 255, 255); stroke: rgb(0, 0, 0);" sodipodi:cx="189.022" sodipodi:cy="265.32599" sodipodi:rx="9.7150002" sodipodi:ry="9.7150002"/>
  <text x="42.5583" y="103.124" id="text3168" style="font-size: 9.41603px; font-family: Arial-BoldMT;">3</text>
  <circle cx="189.022" cy="265.32599" r="9.7150002" transform="matrix(0.671066, 0, 0, 0.671066, 66.2312, -64.471)" id="circle3170" style="fill: rgb(255, 255, 255); stroke: rgb(0, 0, 0);" sodipodi:cx="189.022" sodipodi:cy="265.32599" sodipodi:rx="9.7150002" sodipodi:ry="9.7150002"/>
  <text x="190.31" y="116.866" id="text3172" style="font-size: 9.41603px; font-family: Arial-BoldMT;">2</text>
  <circle cx="189.022" cy="265.32599" r="9.7150002" transform="matrix(0.671066, 0, 0, 0.671066, -55.3347, 2.37323)" id="circle3174" style="fill: rgb(255, 255, 255); stroke: rgb(0, 0, 0);" sodipodi:cx="189.022" sodipodi:cy="265.32599" sodipodi:rx="9.7150002" sodipodi:ry="9.7150002"/>
  <text x="68.7443" y="183.711" id="text3176" style="font-size: 9.41603px; font-family: Arial-BoldMT;">1</text>
  <path d="M 323.60361,156.54778 C 316.37974,159.36033 314.3181,160.23874 309.47387,151.9807 C 304.84564,144.61032 300.22656,135.28932 297.45995,131.2564 C 296.51848,129.88399 293.37516,129.88704 292.93537,130.02466 C 290.93821,130.64962 229.47469,153.31657 211.64251,159.43001 C 205.79224,161.43567 198.47862,157.50618 196.35065,158.33235" id="path7076" style="fill: none; fill-rule: evenodd; stroke: rgb(0, 0, 0); stroke-width: 2.5; stroke-linecap: butt; stroke-linejoin: miter; stroke-miterlimit: 4; stroke-dasharray: none; stroke-opacity: 1;" sodipodi:nodetypes="ccsssc"/>
  <g transform="matrix(-0.267974, 0.504029, -0.504029, -0.267974, 441.514, -72.1099)" id="g4557">
    <rect width="3.6360872" height="3.794178" x="503.13138" y="-225.66817" transform="matrix(0.765001, 0.644028, -0.644028, 0.765001, 0, 0)" id="rect4559" style="fill: rgb(0, 0, 0); fill-opacity: 1; fill-rule: nonzero; stroke: none; stroke-width: 1.3; stroke-miterlimit: 4; stroke-dasharray: none; stroke-opacity: 1;"/>
    <rect width="3.6360872" height="3.794178" x="503.13843" y="-210.80884" transform="matrix(0.765001, 0.644028, -0.644028, 0.765001, 0, 0)" id="rect4561" style="fill: rgb(0, 0, 0); fill-opacity: 1; fill-rule: nonzero; stroke: none; stroke-width: 1.3; stroke-miterlimit: 4; stroke-dasharray: none; stroke-opacity: 1;"/>
    <rect width="3.6360872" height="3.794178" x="503.22794" y="-233.16934" transform="matrix(0.765001, 0.644028, -0.644028, 0.765001, 0, 0)" id="rect4563" style="fill: rgb(0, 0, 0); fill-opacity: 1; fill-rule: nonzero; stroke: none; stroke-width: 1.3; stroke-miterlimit: 4; stroke-dasharray: none; stroke-opacity: 1;"/>
    <rect width="3.6360872" height="3.794178" x="503.10162" y="-221.97508" transform="matrix(0.765001, 0.644028, -0.644028, 0.765001, 0, 0)" id="rect4565" style="fill: rgb(255, 255, 255); fill-opacity: 1; fill-rule: nonzero; stroke: none; stroke-width: 1.3; stroke-miterlimit: 4; stroke-dasharray: none; stroke-opacity: 1;"/>
    <rect width="3.6360872" height="3.794178" x="503.14481" y="-229.39552" transform="matrix(0.765001, 0.644028, -0.644028, 0.765001, 0, 0)" id="rect4567" style="fill: rgb(255, 255, 255); fill-opacity: 1; fill-rule: nonzero; stroke: none; stroke-width: 1.3; stroke-miterlimit: 4; stroke-dasharray: none; stroke-opacity: 1;"/>
    <rect width="3.6360872" height="3.794178" x="503.1427" y="-214.46121" transform="matrix(0.765001, 0.644028, -0.644028, 0.765001, 0, 0)" id="rect4569" style="fill: rgb(255, 255, 255); fill-opacity: 1; fill-rule: nonzero; stroke: none; stroke-width: 1.3; stroke-miterlimit: 4; stroke-dasharray: none; stroke-opacity: 1;"/>
    <rect width="3.6360872" height="3.794178" x="503.14166" y="-206.99403" transform="matrix(0.765001, 0.644028, -0.644028, 0.765001, 0, 0)" id="rect4571" style="fill: rgb(255, 255, 255); fill-opacity: 1; fill-rule: nonzero; stroke: none; stroke-width: 1.3; stroke-miterlimit: 4; stroke-dasharray: none; stroke-opacity: 1;"/>
    <rect width="3.6360872" height="3.794178" x="506.87115" y="-233.22285" transform="matrix(0.765001, 0.644028, -0.644028, 0.765001, 0, 0)" id="rect4573" style="fill: rgb(255, 255, 255); fill-opacity: 1; fill-rule: nonzero; stroke: none; stroke-width: 1.3; stroke-miterlimit: 4; stroke-dasharray: none; stroke-opacity: 1;"/>
    <rect width="3.6360872" height="3.794178" x="503.1145" y="-203.19873" transform="matrix(0.765001, 0.644028, -0.644028, 0.765001, 0, 0)" id="rect4575" style="fill: rgb(0, 0, 0); fill-opacity: 1; fill-rule: nonzero; stroke: none; stroke-width: 1.3; stroke-miterlimit: 4; stroke-dasharray: none; stroke-opacity: 1;"/>
    <rect width="3.6360872" height="3.794178" x="503.12387" y="-218.21779" transform="matrix(0.765001, 0.644028, -0.644028, 0.765001, 0, 0)" id="rect4577" style="fill: rgb(0, 0, 0); fill-opacity: 1; fill-rule: nonzero; stroke: none; stroke-width: 1.3; stroke-miterlimit: 4; stroke-dasharray: none; stroke-opacity: 1;"/>
    <rect width="3.6360872" height="3.794178" x="506.6814" y="-221.93484" transform="matrix(0.765001, 0.644028, -0.644028, 0.765001, 0, 0)" id="rect4579" style="fill: rgb(0, 0, 0); fill-opacity: 1; fill-rule: nonzero; stroke: none; stroke-width: 1.3; stroke-miterlimit: 4; stroke-dasharray: none; stroke-opacity: 1;"/>
    <rect width="3.6360872" height="3.794178" x="506.68845" y="-207.07552" transform="matrix(0.765001, 0.644028, -0.644028, 0.765001, 0, 0)" id="rect4581" style="fill: rgb(0, 0, 0); fill-opacity: 1; fill-rule: nonzero; stroke: none; stroke-width: 1.3; stroke-miterlimit: 4; stroke-dasharray: none; stroke-opacity: 1;"/>
    <rect width="3.6360872" height="3.794178" x="506.77795" y="-229.43602" transform="matrix(0.765001, 0.644028, -0.644028, 0.765001, 0, 0)" id="rect4583" style="fill: rgb(0, 0, 0); fill-opacity: 1; fill-rule: nonzero; stroke: none; stroke-width: 1.3; stroke-miterlimit: 4; stroke-dasharray: none; stroke-opacity: 1;"/>
    <rect width="3.6360872" height="3.794178" x="506.65164" y="-218.24176" transform="matrix(0.765001, 0.644028, -0.644028, 0.765001, 0, 0)" id="rect4585" style="fill: rgb(255, 255, 255); fill-opacity: 1; fill-rule: nonzero; stroke: none; stroke-width: 1.3; stroke-miterlimit: 4; stroke-dasharray: none; stroke-opacity: 1;"/>
    <rect width="3.6360872" height="3.794178" x="506.69482" y="-225.6622" transform="matrix(0.765001, 0.644028, -0.644028, 0.765001, 0, 0)" id="rect4587" style="fill: rgb(255, 255, 255); fill-opacity: 1; fill-rule: nonzero; stroke: none; stroke-width: 1.3; stroke-miterlimit: 4; stroke-dasharray: none; stroke-opacity: 1;"/>
    <rect width="3.6360872" height="3.794178" x="506.69272" y="-210.72789" transform="matrix(0.765001, 0.644028, -0.644028, 0.765001, 0, 0)" id="rect4589" style="fill: rgb(255, 255, 255); fill-opacity: 1; fill-rule: nonzero; stroke: none; stroke-width: 1.3; stroke-miterlimit: 4; stroke-dasharray: none; stroke-opacity: 1;"/>
    <rect width="3.6360872" height="3.794178" x="506.69168" y="-203.26071" transform="matrix(0.765001, 0.644028, -0.644028, 0.765001, 0, 0)" id="rect4591" style="fill: rgb(255, 255, 255); fill-opacity: 1; fill-rule: nonzero; stroke: none; stroke-width: 1.3; stroke-miterlimit: 4; stroke-dasharray: none; stroke-opacity: 1;"/>
    <rect width="3.6360872" height="3.794178" x="506.67389" y="-214.48447" transform="matrix(0.765001, 0.644028, -0.644028, 0.765001, 0, 0)" id="rect4593" style="fill: rgb(0, 0, 0); fill-opacity: 1; fill-rule: nonzero; stroke: none; stroke-width: 1.3; stroke-miterlimit: 4; stroke-dasharray: none; stroke-opacity: 1;"/>
    <rect width="3.6360872" height="3.794178" x="510.23587" y="-225.71014" transform="matrix(0.765001, 0.644028, -0.644028, 0.765001, 0, 0)" id="rect4595" style="fill: rgb(0, 0, 0); fill-opacity: 1; fill-rule: nonzero; stroke: none; stroke-width: 1.3; stroke-miterlimit: 4; stroke-dasharray: none; stroke-opacity: 1;"/>
    <rect width="3.6360872" height="3.794178" x="510.24292" y="-210.85081" transform="matrix(0.765001, 0.644028, -0.644028, 0.765001, 0, 0)" id="rect4597" style="fill: rgb(0, 0, 0); fill-opacity: 1; fill-rule: nonzero; stroke: none; stroke-width: 1.3; stroke-miterlimit: 4; stroke-dasharray: none; stroke-opacity: 1;"/>
    <rect width="3.6360872" height="3.794178" x="510.33243" y="-233.21132" transform="matrix(0.765001, 0.644028, -0.644028, 0.765001, 0, 0)" id="rect4599" style="fill: rgb(0, 0, 0); fill-opacity: 1; fill-rule: nonzero; stroke: none; stroke-width: 1.3; stroke-miterlimit: 4; stroke-dasharray: none; stroke-opacity: 1;"/>
    <rect width="3.6360872" height="3.794178" x="510.20612" y="-222.01706" transform="matrix(0.765001, 0.644028, -0.644028, 0.765001, 0, 0)" id="rect4601" style="fill: rgb(255, 255, 255); fill-opacity: 1; fill-rule: nonzero; stroke: none; stroke-width: 1.3; stroke-miterlimit: 4; stroke-dasharray: none; stroke-opacity: 1;"/>
    <rect width="3.6360872" height="3.794178" x="510.2493" y="-229.4375" transform="matrix(0.765001, 0.644028, -0.644028, 0.765001, 0, 0)" id="rect4603" style="fill: rgb(255, 255, 255); fill-opacity: 1; fill-rule: nonzero; stroke: none; stroke-width: 1.3; stroke-miterlimit: 4; stroke-dasharray: none; stroke-opacity: 1;"/>
    <rect width="3.6360872" height="3.794178" x="510.24719" y="-214.50319" transform="matrix(0.765001, 0.644028, -0.644028, 0.765001, 0, 0)" id="rect4605" style="fill: rgb(255, 255, 255); fill-opacity: 1; fill-rule: nonzero; stroke: none; stroke-width: 1.3; stroke-miterlimit: 4; stroke-dasharray: none; stroke-opacity: 1;"/>
    <rect width="3.6360872" height="3.794178" x="510.24615" y="-207.03601" transform="matrix(0.765001, 0.644028, -0.644028, 0.765001, 0, 0)" id="rect4607" style="fill: rgb(255, 255, 255); fill-opacity: 1; fill-rule: nonzero; stroke: none; stroke-width: 1.3; stroke-miterlimit: 4; stroke-dasharray: none; stroke-opacity: 1;"/>
    <rect width="3.6360872" height="3.794178" x="510.22836" y="-218.25977" transform="matrix(0.765001, 0.644028, -0.644028, 0.765001, 0, 0)" id="rect4609" style="fill: rgb(0, 0, 0); fill-opacity: 1; fill-rule: nonzero; stroke: none; stroke-width: 1.3; stroke-miterlimit: 4; stroke-dasharray: none; stroke-opacity: 1;"/>
    <rect width="3.6360872" height="3.794178" x="510.32791" y="-203.24594" transform="matrix(0.765001, 0.644028, -0.644028, 0.765001, 0, 0)" id="rect4611" style="fill: rgb(0, 0, 0); fill-opacity: 1; fill-rule: nonzero; stroke: none; stroke-width: 1.3; stroke-miterlimit: 4; stroke-dasharray: none; stroke-opacity: 1;"/>
  </g>
  <text x="235.864" y="103.695" id="text2551" xml:space="preserve" style="font-size: 9px; font-style: normal; font-variant: normal; font-weight: normal; font-stretch: normal; text-align: center; line-height: 125%; text-anchor: middle; fill: rgb(0, 0, 0); fill-opacity: 1; stroke: none; stroke-width: 1px; stroke-linecap: butt; stroke-linejoin: miter; stroke-opacity: 1; font-family: Bitstream Vera Sans;" sodipodi:linespacing="125%"><tspan sodipodi:role="line" id="tspan2575" x="235.864" y="103.695">Curva</tspan><tspan sodipodi:role="line" id="tspan2577" x="235.864" y="114.945">Vecchi Box</tspan></text>
  <text x="99.0168" y="116.434" id="text2553" xml:space="preserve" style="font-size: 9px; font-style: normal; font-variant: normal; font-weight: normal; font-stretch: normal; text-align: center; line-height: 125%; text-anchor: middle; fill: rgb(0, 0, 0); fill-opacity: 1; stroke: none; stroke-width: 1px; stroke-linecap: butt; stroke-linejoin: miter; stroke-opacity: 1; font-family: Bitstream Vera Sans;" sodipodi:linespacing="125%"><tspan sodipodi:role="line" id="tspan2579" x="99.0168" y="116.434">Curva</tspan><tspan sodipodi:role="line" id="tspan2581" x="99.0168" y="127.684">Esse Tornantino</tspan></text>
  <text x="26.4538" y="185.499" id="text2555" xml:space="preserve" style="font-size: 9px; font-style: normal; font-variant: normal; font-weight: normal; font-stretch: normal; text-align: center; line-height: 125%; text-anchor: middle; fill: rgb(0, 0, 0); fill-opacity: 1; stroke: none; stroke-width: 1px; stroke-linecap: butt; stroke-linejoin: miter; stroke-opacity: 1; font-family: Bitstream Vera Sans;" sodipodi:linespacing="125%">Tornantino</text>
  <text x="29.5974" y="66.0746" id="text2557" xml:space="preserve" style="font-size: 9px; font-style: normal; font-variant: normal; font-weight: normal; font-stretch: normal; text-align: center; line-height: 125%; text-anchor: middle; fill: rgb(0, 0, 0); fill-opacity: 1; stroke: none; stroke-width: 1px; stroke-linecap: butt; stroke-linejoin: miter; stroke-opacity: 1; font-family: Bitstream Vera Sans;" sodipodi:linespacing="125%">Curva Muro</text>
  <text x="440.842" y="65.9955" id="text2559" xml:space="preserve" style="font-size: 9px; font-style: normal; font-variant: normal; font-weight: normal; font-stretch: normal; text-align: center; line-height: 125%; text-anchor: middle; fill: rgb(0, 0, 0); fill-opacity: 1; stroke: none; stroke-width: 1px; stroke-linecap: butt; stroke-linejoin: miter; stroke-opacity: 1; font-family: Bitstream Vera Sans;" sodipodi:linespacing="125%">Curvone</text>
  <text x="395.714" y="240.384" id="text2561" xml:space="preserve" style="font-size: 9px; font-style: normal; font-variant: normal; font-weight: normal; font-stretch: normal; text-align: center; line-height: 125%; text-anchor: middle; fill: rgb(0, 0, 0); fill-opacity: 1; stroke: none; stroke-width: 1px; stroke-linecap: butt; stroke-linejoin: miter; stroke-opacity: 1; font-family: Bitstream Vera Sans;" sodipodi:linespacing="125%"><tspan sodipodi:role="line" id="tspan2583" x="395.714" y="240.384">Curva</tspan><tspan sodipodi:role="line" id="tspan2585" x="395.714" y="251.634">Monte Sperello</tspan></text>
  <text x="387.08" y="146.022" id="text2587" xml:space="preserve" style="font-size: 9px; font-style: normal; font-variant: normal; font-weight: normal; font-stretch: normal; text-align: center; line-height: 125%; text-anchor: middle; fill: rgb(0, 0, 0); fill-opacity: 1; stroke: none; stroke-width: 1px; stroke-linecap: butt; stroke-linejoin: miter; stroke-opacity: 1; font-family: Bitstream Vera Sans;" sodipodi:linespacing="125%"><tspan sodipodi:role="line" id="tspan2589" x="387.08" y="146.022">Curva Zampini</tspan></text>
  <text x="310.956" y="170.664" id="text2591" xml:space="preserve" style="font-size: 9px; font-style: normal; font-variant: normal; font-weight: normal; font-stretch: normal; text-align: center; line-height: 125%; text-anchor: middle; fill: rgb(0, 0, 0); fill-opacity: 1; stroke: none; stroke-width: 1px; stroke-linecap: butt; stroke-linejoin: miter; stroke-opacity: 1; font-family: Bitstream Vera Sans;" sodipodi:linespacing="125%"><tspan sodipodi:role="line" id="tspan2595" x="310.956" y="170.664">Prima Esse</tspan></text>
  <text x="308.55" y="113.544" id="text2597" xml:space="preserve" style="font-size: 9px; font-style: normal; font-variant: normal; font-weight: normal; font-stretch: normal; text-align: center; line-height: 125%; text-anchor: middle; fill: rgb(0, 0, 0); fill-opacity: 1; stroke: none; stroke-width: 1px; stroke-linecap: butt; stroke-linejoin: miter; stroke-opacity: 1; font-family: Bitstream Vera Sans;" sodipodi:linespacing="125%"><tspan sodipodi:role="line" id="tspan2601" x="308.55" y="113.544">Seconda Esse</tspan></text>
</svg>