<svg height="600" width="800" xmlns="http://www.w3.org/2000/svg" xmlns:xlink="http://www.w3.org/1999/xlink"><marker id="a" orient="auto" overflow="visible" refX="0" refY="0"><path d="m8.7185878 4.0337352-10.9258773-4.01772194 10.9258779-4.01772106c-1.7454984 2.3720609-1.7354408 5.6174519-.0000006 8.035443z" fill-rule="evenodd" stroke-linejoin="round" stroke-width=".625" transform="scale(.6)"/></marker><path d="m382.99169 132.28054-7.52223-10.26501 23.11125-8.78009-15.58902 19.04511z" fill="#f00" fill-rule="evenodd"/><path d="m-118.69071-677.75091c-.006 2.23581-1.82294 4.04368-4.05876 4.03871-2.23582-.006-4.04461-1.82087-4.04079-4.05669.004-2.23584 1.81881-4.04555 4.05464-4.04286 2.23582.003 4.04647 1.81674 4.04492 4.05256" fill="#fff"/><g transform="matrix(.6831882 0 0 .6831882 -1263.9926207103 -751.93670992516)"><path d="m1630.6885 1699.0315c0 16.024-12.99 29.0141-29.0141 29.0141-16.024 0-29.014-12.9901-29.014-29.0141s12.99-29.0141 29.014-29.0141c16.0241 0 29.0141 12.9901 29.0141 29.0141z" fill="none" stroke="#0f0f0f" stroke-linecap="round" stroke-linejoin="round" stroke-width="2.556" transform="matrix(.7824725 0 0 .7824725 634.42204 138.06537)"/><text font-family="DejaVu Sans" font-size="25.843822" font-weight="bold" x="1869.3484" y="1477.399"><tspan font-family="DejaVu Sans" font-size="26.347059" font-weight="bold" x="1869.3484" y="1477.399">14</tspan></text></g><g transform="matrix(.6831882 0 0 .6831882 -964.4733707103 -1130.98582992516)"><g transform="translate(-374.59169 455.85739)"><path d="m1630.6885 1699.0315c0 16.024-12.99 29.0141-29.0141 29.0141-16.024 0-29.014-12.9901-29.014-29.0141s12.99-29.0141 29.014-29.0141c16.0241 0 29.0141 12.9901 29.0141 29.0141z" fill="none" stroke="#0f0f0f" stroke-linecap="round" stroke-linejoin="round" stroke-width="2.556" transform="matrix(.7824725 0 0 .7824725 634.42204 138.06537)"/><text font-family="DejaVu Sans" font-size="25.843822" font-weight="bold" x="1869.3484" y="1477.399"><tspan font-family="DejaVu Sans" font-size="26.347059" font-weight="bold" x="1869.3484" y="1477.399">15</tspan></text></g><g transform="translate(412.12596 362.76291)"><path d="m1630.6885 1699.0315c0 16.024-12.99 29.0141-29.0141 29.0141-16.024 0-29.014-12.9901-29.014-29.0141s12.99-29.0141 29.014-29.0141c16.0241 0 29.0141 12.9901 29.0141 29.0141z" fill="none" stroke="#0f0f0f" stroke-linecap="round" stroke-linejoin="round" stroke-width="2.556" transform="matrix(.7824725 0 0 .7824725 634.42204 138.06537)"/><text font-family="DejaVu Sans" font-size="25.843822" font-weight="bold" x="1878.1309" y="1477.399"><tspan font-family="DejaVu Sans" font-size="26.347059" font-weight="bold" x="1878.1309" y="1477.399">2</tspan></text></g><g transform="translate(345.15237 297.55095)"><path d="m1630.6885 1699.0315c0 16.024-12.99 29.0141-29.0141 29.0141-16.024 0-29.014-12.9901-29.014-29.0141s12.99-29.0141 29.014-29.0141c16.0241 0 29.0141 12.9901 29.0141 29.0141z" fill="none" stroke="#0f0f0f" stroke-linecap="round" stroke-linejoin="round" stroke-width="2.556" transform="matrix(.7824725 0 0 .7824725 634.42204 138.06537)"/><text font-family="DejaVu Sans" font-size="25.843822" font-weight="bold" x="1878.1309" y="1477.399"><tspan font-family="DejaVu Sans" font-size="26.347059" font-weight="bold" x="1878.1309" y="1477.399">3</tspan></text></g><g transform="translate(245.89228 377.16437)"><path d="m1630.6885 1699.0315c0 16.024-12.99 29.0141-29.0141 29.0141-16.024 0-29.014-12.9901-29.014-29.0141s12.99-29.0141 29.014-29.0141c16.0241 0 29.0141 12.9901 29.0141 29.0141z" fill="none" stroke="#0f0f0f" stroke-linecap="round" stroke-linejoin="round" stroke-width="2.556" transform="matrix(.7824725 0 0 .7824725 634.42204 138.06537)"/><text font-family="DejaVu Sans" font-size="25.843822" font-weight="bold" x="1878.1309" y="1477.399"><tspan font-family="DejaVu Sans" font-size="26.347059" font-weight="bold" x="1878.1309" y="1477.399">4</tspan></text></g><g transform="translate(515.54397 443.83093)"><path d="m1630.6885 1699.0315c0 16.024-12.99 29.0141-29.0141 29.0141-16.024 0-29.014-12.9901-29.014-29.0141s12.99-29.0141 29.014-29.0141c16.0241 0 29.0141 12.9901 29.0141 29.0141z" fill="none" stroke="#0f0f0f" stroke-linecap="round" stroke-linejoin="round" stroke-width="2.556" transform="matrix(.7824725 0 0 .7824725 634.42204 138.06537)"/><text font-family="DejaVu Sans" font-size="25.843822" font-weight="bold" x="1878.1309" y="1477.399"><tspan font-family="DejaVu Sans" font-size="26.347059" font-weight="bold" x="1878.1309" y="1477.399">5</tspan></text></g><g transform="translate(934.5047 -385.62827)"><path d="m1630.6885 1699.0315c0 16.024-12.99 29.0141-29.0141 29.0141-16.024 0-29.014-12.9901-29.014-29.0141s12.99-29.0141 29.014-29.0141c16.0241 0 29.0141 12.9901 29.0141 29.0141z" fill="none" stroke="#0f0f0f" stroke-linecap="round" stroke-linejoin="round" stroke-width="2.556" transform="matrix(.7824725 0 0 .7824725 346.2481 1130.0111)"/><text font-family="DejaVu Sans" font-size="25.843822" font-weight="bold" x="1589.9569" y="2469.3447"><tspan font-family="DejaVu Sans" font-size="26.347059" font-weight="bold" x="1589.9569" y="2469.3447">6</tspan></text></g><g transform="translate(342.51189 538.4548)"><path d="m1630.6885 1699.0315c0 16.024-12.99 29.0141-29.0141 29.0141-16.024 0-29.014-12.9901-29.014-29.0141s12.99-29.0141 29.014-29.0141c16.0241 0 29.0141 12.9901 29.0141 29.0141z" fill="none" stroke="#0f0f0f" stroke-linecap="round" stroke-linejoin="round" stroke-width="2.556" transform="matrix(.7824725 0 0 .7824725 634.42204 138.06537)"/><text font-family="DejaVu Sans" font-size="25.843822" font-weight="bold" x="1878.1309" y="1477.399"><tspan font-family="DejaVu Sans" font-size="26.347059" font-weight="bold" x="1878.1309" y="1477.399">7</tspan></text></g><g transform="translate(1058.1749 -772.76871)"><path d="m1630.6885 1699.0315c0 16.024-12.99 29.0141-29.0141 29.0141-16.024 0-29.014-12.9901-29.014-29.0141s12.99-29.0141 29.014-29.0141c16.0241 0 29.0141 12.9901 29.0141 29.0141z" fill="none" stroke="#0f0f0f" stroke-linecap="round" stroke-linejoin="round" stroke-width="2.556" transform="matrix(.7824725 0 0 .7824725 -167.36805 1641.6668)"/><text font-family="DejaVu Sans" font-size="25.843822" font-weight="bold" x="1076.3408" y="2981.0005"><tspan font-family="DejaVu Sans" font-size="26.347059" font-weight="bold" x="1076.3408" y="2981.0005">8</tspan></text></g><g transform="translate(85.306673 615.16882)"><path d="m1630.6885 1699.0315c0 16.024-12.99 29.0141-29.0141 29.0141-16.024 0-29.014-12.9901-29.014-29.0141s12.99-29.0141 29.014-29.0141c16.0241 0 29.0141 12.9901 29.0141 29.0141z" fill="none" stroke="#0f0f0f" stroke-linecap="round" stroke-linejoin="round" stroke-width="2.556" transform="matrix(.7824725 0 0 .7824725 634.42204 138.06537)"/><text font-family="DejaVu Sans" font-size="25.843822" font-weight="bold" x="1878.1309" y="1477.399"><tspan font-family="DejaVu Sans" font-size="26.347059" font-weight="bold" x="1878.1309" y="1477.399">9</tspan></text></g><g fill="none" stroke="#000" transform="matrix(1.4637255 0 0 1.4637255 1427.44920802645 1657.70458153407)"><path d="m43.465909 521.60653v40.01205" stroke-width="2.250018"/><path d="m248.89513 541.96765h-204.952108" stroke-width="3.197514"/><g stroke-width="2.250018"><path d="m145.31809 542.71492v9.25278"/><path d="m247.77157 541.96765v-10.00006"/></g></g><g transform="matrix(1.46368750169 .01054710829 -.01054710829 1.46368750169 1439.40760384675 1669.69044855455)"><path d="m216.45009 511.03333h1.61719v-5.37012l-1.76661.36035v-1.01953l1.81934-.34278h1.08984v6.37208h1.61719v.96679h-4.37695zm11.75098.5625-2.44336 3.68261h2.44336zm-.167-1.06348h1.30957v4.74609h1.06348v.95801h-1.06348v1.63477h-1.14257v-1.63477h-3.26954v-1.06348zm-1.90722-6.02051h1.26562l-7.37402 13.61426h-1.26563z"/><path d="m244.4872 509.91711c.36913-.72655.80565-1.26268 1.30957-1.60839.50389-.3457 1.09862-.51855 1.78418-.51856.92577.00001 1.63914.3589 2.14013 1.07666.50097.71778.75146 1.73878.75147 3.06299v5.94141h-1.46777v-5.88868c-.00002-.94335-.14943-1.64354-.44825-2.10058-.29884-.45702-.7588-.68554-1.37988-.68555-.75001.00001-1.34474.27833-1.78418.83496-.43946.55665-.65919 1.31544-.65918 2.27637v5.56348h-1.45898v-5.88868c-.00001-.94921-.15089-1.65087-.45264-2.10498-.30176-.45409-.76612-.68114-1.39307-.68115-.74414.00001-1.33447.27979-1.77099.83936-.43653.55957-.65479 1.3169-.65479 2.27197v5.56348h-1.46777v-9.84375h1.46777v1.52929c.33398-.6035.73242-1.04882 1.19532-1.33593.46288-.2871 1.01366-.43066 1.65234-.43067.64452.00001 1.19237.18165 1.64355.54492.45117.36329.78222.89064.99317 1.58203z"/><path d="m253.38173 508.02747h1.45019v9.84375h-1.45019zm0-3.83204h1.45019v2.04786h-1.45019z"/><path d="m257.88173 504.19543h1.45019v13.67579h-1.45019z"/><path d="m269.9579 512.54504v.79102h-6.69726c.0644 1.11328.36767 1.96143.90966 2.54443.54199.58301 1.29346.87452 2.2544.87451.56249.00001 1.10595-.0762 1.63037-.22851.52441-.15234 1.04442-.38086 1.56006-.68555v1.5293c-.5215.24609-1.05616.43359-1.60401.5625s-1.10303.19336-1.66552.19336c-1.41798 0-2.53858-.45703-3.36182-1.3711-.82324-.91406-1.23486-2.15038-1.23486-3.70898 0-1.61132.39111-2.89013 1.17334-3.83643.78222-.94627 1.83837-1.41942 3.16845-1.41943 1.18945.00001 2.13134.42628 2.82569 1.27881.69432.85255 1.04149 2.01124 1.0415 3.47607zm-1.45898-.47461c-.0117-.88475-.23439-1.59081-.66797-2.11816-.4336-.52733-1.00782-.79101-1.72266-.79102-.81446.00001-1.46631.2549-1.95556.76465-.48927.50978-.76905 1.22755-.83936 2.15332z"/></g><g transform="matrix(1.46368750169 .01054710829 -.01054710829 1.46368750169 1415.98799584675 1666.76299755455)"><path d="m139.34534 559.12549h5.57226v1.49414h-7.49707v-1.49414c.60352-.69727 1.42969-1.6333 2.47852-2.80811 1.04882-1.1748 1.708-1.93212 1.97754-2.27197.50976-.63866.86571-1.17919 1.06787-1.62158.20214-.44238.30321-.87743.30322-1.30518-.00001-.69725-.21973-1.26561-.65918-1.70508-.43946-.43944-1.01368-.65916-1.72266-.65918-.49805.00002-1.02539.0967-1.58203.29004-.55664.19337-1.15137.48634-1.78418.87891v-1.79297c.64453-.2871 1.24658-.50389 1.80616-.65039.55956-.14647 1.07079-.21971 1.53369-.21973 1.2246.00002 2.20019.33986 2.92676 1.01954.72655.67969 1.08983 1.5879 1.08984 2.7246-.00001.53908-.0908 1.05031-.27246 1.5337-.18165.4834-.5127 1.05323-.99317 1.70947-.13477.16993-.55518.66065-1.26123 1.47217-.70606.81152-1.70068 1.94678-2.98388 3.40576z"/><path d="m151.68518 548.6665c-.82032.00002-1.43848.44972-1.85449 1.34912-.41602.89943-.62403 2.25148-.62402 4.05616-.00001 1.79883.208 3.14795.62402 4.04736.41601.89942 1.03417 1.34912 1.85449 1.34912.82617 0 1.44579-.4497 1.85889-1.34912.41308-.89941.61962-2.24853.61963-4.04736-.00001-1.80468-.20655-3.15673-.61963-4.05616-.4131-.8994-1.03272-1.3491-1.85889-1.34912zm0-1.40625c1.32421.00002 2.33495.58156 3.03223 1.74463.69725 1.1631 1.04589 2.85206 1.0459 5.0669-.00001 2.20899-.34865 3.89502-1.0459 5.0581-.69728 1.16309-1.70802 1.74463-3.03223 1.74463-1.32422 0-2.33496-.58154-3.03223-1.74463-.69726-1.16308-1.0459-2.84911-1.04589-5.0581-.00001-2.21484.34863-3.9038 1.04589-5.0669.69727-1.16307 1.70801-1.74461 3.03223-1.74463z"/><path d="m161.98596 548.6665c-.82031.00002-1.43848.44972-1.85449 1.34912-.41602.89943-.62403 2.25148-.62402 4.05616-.00001 1.79883.208 3.14795.62402 4.04736.41601.89942 1.03418 1.34912 1.85449 1.34912.82617 0 1.4458-.4497 1.85889-1.34912.41308-.89941.61962-2.24853.61963-4.04736-.00001-1.80468-.20655-3.15673-.61963-4.05616-.41309-.8994-1.03272-1.3491-1.85889-1.34912zm0-1.40625c1.32421.00002 2.33496.58156 3.03223 1.74463.69726 1.1631 1.04589 2.85206 1.0459 5.0669-.00001 2.20899-.34864 3.89502-1.0459 5.0581-.69727 1.16309-1.70802 1.74463-3.03223 1.74463-1.32422 0-2.33496-.58154-3.03222-1.74463-.69727-1.16308-1.0459-2.84911-1.0459-5.0581 0-2.21484.34863-3.9038 1.0459-5.0669.69726-1.16307 1.708-1.74461 3.03222-1.74463z"/><path d="m175.55627 552.66553c.36914-.72656.80566-1.26269 1.30957-1.6084.5039-.34569 1.09863-.51855 1.78418-.51856.92577.00001 1.63915.3589 2.14014 1.07666.50096.71779.75145 1.73878.75147 3.06299v5.94141h-1.46778v-5.88867c-.00001-.94336-.14942-1.64355-.44824-2.10059-.29884-.45702-.7588-.68554-1.37988-.68555-.75001.00001-1.34474.27833-1.78418.83497-.43946.55664-.65919 1.31543-.65918 2.27636v5.56348h-1.45899v-5.88867c0-.94921-.15088-1.65087-.45263-2.10498-.30177-.4541-.76612-.68115-1.39307-.68116-.74414.00001-1.33448.2798-1.771.83936-.43652.55958-.65478 1.3169-.65478 2.27197v5.56348h-1.46777v-9.84375h1.46777v1.5293c.33398-.60351.73242-1.04882 1.19531-1.33594.46289-.2871 1.01367-.43066 1.65235-.43067.64452.00001 1.19237.18165 1.64355.54493.45116.36329.78222.89063.99316 1.58203z"/></g><path d="m1630.6885 1699.0315c0 16.024-12.99 29.0141-29.0141 29.0141-16.024 0-29.014-12.9901-29.014-29.0141s12.99-29.0141 29.014-29.0141c16.0241 0 29.0141 12.9901 29.0141 29.0141z" fill="none" stroke="#0f0f0f" stroke-linecap="round" stroke-linejoin="round" stroke-width="2.556" transform="matrix(.7824725 0 0 .7824725 966.12926 355.4038)"/><text font-family="DejaVu Sans" font-size="25.843822" font-weight="bold" x="2209.8379" y="1694.7377"><tspan font-family="DejaVu Sans" font-size="26.347059" font-weight="bold" x="2209.8379" y="1694.7377">1</tspan></text></g><g transform="matrix(.6831882 0 0 .6831882 -656.7545007103 -426.98324992516)"><path d="m1630.6885 1699.0315c0 16.024-12.99 29.0141-29.0141 29.0141-16.024 0-29.014-12.9901-29.014-29.0141s12.99-29.0141 29.014-29.0141c16.0241 0 29.0141 12.9901 29.0141 29.0141z" fill="none" stroke="#0f0f0f" stroke-linecap="round" stroke-linejoin="round" stroke-width="2.556" transform="matrix(.7824725 0 0 .7824725 634.42204 138.06537)"/><text font-family="DejaVu Sans" font-size="25.843822" font-weight="bold" x="1869.3484" y="1477.399"><tspan font-family="DejaVu Sans" font-size="26.347059" font-weight="bold" x="1869.3484" y="1477.399">13</tspan></text></g><g transform="matrix(.6831882 0 0 .6831882 -684.4958507103 -545.35103992516)"><path d="m1630.6885 1699.0315c0 16.024-12.99 29.0141-29.0141 29.0141-16.024 0-29.014-12.9901-29.014-29.0141s12.99-29.0141 29.014-29.0141c16.0241 0 29.0141 12.9901 29.0141 29.0141z" fill="none" stroke="#0f0f0f" stroke-linecap="round" stroke-linejoin="round" stroke-width="2.556" transform="matrix(.7824725 0 0 .7824725 634.42204 138.06537)"/><text font-family="DejaVu Sans" font-size="25.843822" font-weight="bold" x="1869.3484" y="1477.399"><tspan font-family="DejaVu Sans" font-size="26.347059" font-weight="bold" x="1869.3484" y="1477.399">12</tspan></text></g><g transform="matrix(.6831882 0 0 .6831882 -732.5137407103 -525.24208992516)"><path d="m1630.6885 1699.0315c0 16.024-12.99 29.0141-29.0141 29.0141-16.024 0-29.014-12.9901-29.014-29.0141s12.99-29.0141 29.014-29.0141c16.0241 0 29.0141 12.9901 29.0141 29.0141z" fill="none" stroke="#0f0f0f" stroke-linecap="round" stroke-linejoin="round" stroke-width="2.556" transform="matrix(.7824725 0 0 .7824725 634.42204 138.06537)"/><text font-family="DejaVu Sans" font-size="25.843822" font-weight="bold" x="1869.3484" y="1477.399"><tspan font-family="DejaVu Sans" font-size="26.347059" font-weight="bold" x="1869.3484" y="1477.399">11</tspan></text></g><g transform="matrix(.6831882 0 0 .6831882 -944.1394307103 -632.49344992516)"><path d="m1630.6885 1699.0315c0 16.024-12.99 29.0141-29.0141 29.0141-16.024 0-29.014-12.9901-29.014-29.0141s12.99-29.0141 29.014-29.0141c16.0241 0 29.0141 12.9901 29.0141 29.0141z" fill="none" stroke="#0f0f0f" stroke-linecap="round" stroke-linejoin="round" stroke-width="2.556" transform="matrix(.7824725 0 0 .7824725 634.42204 138.06537)"/><text font-family="DejaVu Sans" font-size="25.843822" font-weight="bold" x="1869.3484" y="1477.399"><tspan font-family="DejaVu Sans" font-size="26.347059" font-weight="bold" x="1869.3484" y="1477.399">10</tspan></text></g><path d="m704.46081 223.06164 11.82367-4.7069 2.70226 24.57477z" fill="#f00" fill-rule="evenodd"/><g transform="translate(14.14319 5.357203)"><path d="m739.67769 87.453071-28.36156-77.444066" fill="none" marker-start="url(#a)" stroke="#000" stroke-width="9.55947"/><text font-family="DejaVu Sans" font-size="40" font-weight="bold" letter-spacing="0" word-spacing="0" x="709.13678" y="135.84808"><tspan x="709.13678" y="135.84808">N</tspan></text></g><path d="m187.05253 288.73927c12.51456 7.38352 26.04291 14.13915 38.99882 19.84442 2.63342 1.15965 6.22264 1.9955 8.69034.94073 3.94145-1.68464 7.52418-5.6354 10.53721-9.15875 8.58734-10.04204 16.38139-20.87219 24.26369-31.53746 10.85537-14.6878 18.95322-31.93634 31.94941-44.52169 21.61361-20.93035 47.74843-37.5741 71.88006-56.02533 32.46848-24.82568 66.06518-48.28886 97.92035-73.805359 9.6779-7.752189 16.31552-14.801249 26.94205-22.353375" fill="none" stroke="#000" stroke-width="4.5"/><path d="m377.56139 154.60055c49.30584-34.38949 98.60373-69.728054 146.09945-104.812722 5.94084-4.388416 15.48599-5.545205 22.76821-4.810308 8.1144.818931 16.16637 4.291367 22.73248 8.805034 6.871 4.723245 14.04261 11.272703 17.57882 18.905712 2.95502 6.378635 3.99963 14.739161 3.07035 21.649342-.80493 5.985592-4.06301 12.791432-8.27315 17.037862-4.27284 4.30954-11.15009 7.51102-17.17573 8.63013-5.48461 1.01861-12.05787-.28372-15.50179-3.7082-4.19321-4.16951-6.0205-12.5241-4.3927-19.593147 1.23305-5.354369-3.10965-13.387207-5.8619-16.96064-1.79672-2.332842-8.82251-3.584109-12.20259-2.928117-4.45415.864532-10.17752 3.963905-12.49776 7.613867-2.67024 4.200546-3.67819 11.573999-3.68577 16.857657-.009 6.33178.7073 13.91677 3.35317 19.819 2.98692 6.6631 7.59441 13.99223 13.95198 17.24423 11.11607 5.68605 24.76355 11.54425 37.21666 17.22474 27.42244 12.50879 54.7937 25.03984 82.00332 37.9759 6.57984 3.12821 14.08821 7.13132 19.13893 12.30726 23.44632 24.02766 44.84582 47.4705 66.92571 72.54891 3.93409 4.46837 8.95077 9.5081 10.41566 14.74662.9745 3.48465-1.66865 7.95885-4.11413 9.87484-2.36088 1.8497-5.85162 1.74039-9.58177.99299-9.73799-1.95116-19.66541-4.25928-28.92445-7.86804-9.57161-3.73059-18.51405-9.54853-27.01398-15.35909-20.90499-14.29065-40.65912-30.02544-61.20077-44.94453-8.10993-5.89012-16.24953-12.26287-25.30768-16.27406-8.80839-3.90059-19.00513-5.78046-28.37108-5.94714-6.84437-.12177-14.09274 1.72347-20.25981 5.08186-7.13664 3.88626-13.8159 9.32519-19.57203 15.13804-6.14713 6.20774-11.13004 14.18754-14.39791 22.04251-3.28775 7.9025-4.78061 16.40111-5.26879 25.23002-.6898 12.47339.7495 25.1054-.005 37.55802-.39298 6.48441-.7452 13.53646-3.43755 19.25308-3.01904 6.41026-7.87087 13.34666-13.69672 17.12751-5.94127 3.85569-14.31696 5.53379-21.60457 5.78217-8.56127.29181-18.68549.0308-25.94207-4.16159-11.00125-6.35584-18.74942-18.92161-28.83141-27.48314-4.37908-3.71869-9.61699-7.03383-14.51827-7.32375-4.28852-.25367-8.85302 2.66536-11.05137 6.75533-3.87449 7.20827-5.19912 16.44052-7.20092 25.10547-1.69117 7.32032-4.21502 14.04266-3.10992 20.13449.73147 4.0323 4.72775 7.76925 8.61975 10.23807 9.25367 5.86995 18.26576 11.34904 27.26221 17.75452 51.53041 36.68967 103.75312 74.0407 155.59546 109.8929 3.45573 2.38979 8.05796 1.89363 11.42332-.0324 2.76671-1.58336 2.89883-6.19727 4.069-9.45669 2.22077-6.18614 1.71315-15.06854 6.10399-18.8799 6.87265-5.96561 12.04877-5.91783 17.72868-3.57939 6.01569 2.47669 13.09764 6.81105 17.98648 12.01334 5.73075 6.0982 10.35265 13.63991 12.82154 21.43603 2.15421 6.80288 2.47504 12.67942.58485 19.60388-1.84791 6.76943-5.77623 13.76413-10.74793 18.80011-5.28926 5.3577-13.00459 8.78624-20.04611 11.70313-6.77413 2.80613-13.97626 4.99565-21.25411 4.88959-8.37515-.12205-17.37598-1.59164-24.97019-5.32518-18.00024-8.84949-34.30822-21.05068-51.33852-32.11879-156.83906-101.93077-314.6065-202.38915-470.043866-305.83833-3.638796-2.42172-6.003651-6.07196-5.625675-8.98347.30068-2.31609 7.022377-4.58582 10.361758-4.29226 13.307689 1.17004 25.877748 3.64134 38.336368 9.22527 15.07921 6.75835 27.358005 16.14513 41.927445 24.50196 24.06962 13.80609 46.48347 27.19464 70.26317 40.93465 3.45554 1.99663 9.77433 4.2353 13.23095 2.02427 4.69579-3.00358 8.73749-7.54457 13.37955-11.07122 54.22442-41.19452 106.20861-83.74026 162.07873-122.70821z" fill="none" stroke="#000" stroke-width="10.25"/><g transform="matrix(.94653622573 -.65926382626 .65926382626 .94653622573 -336.0258 119.6276)"><path d="m480.448 372.95486h3.636085v3.794175h-3.636085z"/><path d="m480.45505 387.81418h3.636085v3.794175h-3.636085z"/><path d="m480.54456 365.4537h3.636085v3.794175h-3.636085z"/><path d="m480.41824 376.64795h3.636085v3.794175h-3.636085z" fill="#fff"/><path d="m480.46143 369.22751h3.636085v3.794175h-3.636085z" fill="#fff"/><path d="m480.45932 384.1618h3.636085v3.794175h-3.636085z" fill="#fff"/><path d="m480.45828 391.629h3.636085v3.794175h-3.636085z" fill="#fff"/><path d="m484.18777 365.40018h3.636085v3.794175h-3.636085z" fill="#fff"/><path d="m480.43112 395.42429h3.636085v3.794175h-3.636085z"/><path d="m480.44049 380.40524h3.636085v3.794175h-3.636085z"/><path d="m483.99802 376.68817h3.636085v3.794175h-3.636085z"/><path d="m484.00507 391.54752h3.636085v3.794175h-3.636085z"/><path d="m484.09457 369.18701h3.636085v3.794175h-3.636085z"/><path d="m483.96826 380.38126h3.636085v3.794175h-3.636085z" fill="#fff"/><path d="m484.01144 372.96085h3.636085v3.794175h-3.636085z" fill="#fff"/><path d="m484.00934 387.89514h3.636085v3.794175h-3.636085z" fill="#fff"/><path d="m484.0083 395.3623h3.636085v3.794175h-3.636085z" fill="#fff"/><path d="m483.99051 384.13855h3.636085v3.794175h-3.636085z"/><path d="m487.55249 372.9129h3.636085v3.794175h-3.636085z"/><path d="m487.55954 387.77222h3.636085v3.794175h-3.636085z"/><path d="m487.64905 365.41171h3.636085v3.794175h-3.636085z"/><path d="m487.52274 376.60596h3.636085v3.794175h-3.636085z" fill="#fff"/><path d="m487.56592 369.18555h3.636085v3.794175h-3.636085z" fill="#fff"/><path d="m487.56381 384.11984h3.636085v3.794175h-3.636085z" fill="#fff"/><path d="m487.56277 391.58701h3.636085v3.794175h-3.636085z" fill="#fff"/><path d="m487.54498 380.36325h3.636085v3.794175h-3.636085z"/><path d="m487.64453 395.37708h3.636085v3.794175h-3.636085z"/></g><path d="m320.26945 434.04954-8.26599 9.67613-13.84698-20.48128z" fill="#f00" fill-rule="evenodd"/><g transform="matrix(.6831882 0 0 .6831882 -1092.6646 -741.62201)"><path d="m1630.6885 1699.0315c0 16.024-12.99 29.0141-29.0141 29.0141-16.024 0-29.014-12.9901-29.014-29.0141s12.99-29.0141 29.014-29.0141c16.0241 0 29.0141 12.9901 29.0141 29.0141z" fill="none" stroke="#0f0f0f" stroke-linecap="round" stroke-linejoin="round" stroke-width="2.556" transform="matrix(.7824725 0 0 .7824725 634.42204 138.06537)"/><text font-family="DejaVu Sans" font-size="25.843822" font-weight="bold" x="1869.3484" y="1477.399"><tspan font-family="DejaVu Sans" font-size="26.347059" font-weight="bold" x="1869.3484" y="1477.399">16</tspan></text></g></svg>