<svg height="875.29749" width="1415.7909" xmlns="http://www.w3.org/2000/svg" xmlns:xlink="http://www.w3.org/1999/xlink"><clipPath id="a"><path d="m871.13547 932.36346c443.74013 412.88854 887.48003 825.77694 1331.22013 1238.66554 173.4231-186.3816 346.8462-372.763 520.2693-559.1445-443.7401-412.8885-887.4801-825.77692-1331.2202-1238.66546-173.4231 186.38148-346.8461 372.7629-520.26923 559.14442z"/></clipPath><clipPath id="b"><path d="m-4232.8457-2372.1296h2168.1926v1468.4177h-2168.1926z" transform="matrix(-.9472965 -.3203582 .9519016 -.3064038 0 0)"/></clipPath><pattern id="c" patternTransform="matrix(-.00287797 -.77602552 .77602552 -.00287797 -3018.0745 -450.55831)" xlink:href="#d"/><pattern id="d" height="10.773841" patternTransform="matrix(-.5630234 -.534067 .534067 -.5630234 1593.7246 910.57043)" patternUnits="userSpaceOnUse" width="10.793857"><g transform="matrix(.5878912 .00609871 -.00609871 .5878912 -595.3809 -720.7077)"><path d="m1025.5348 1215.2814h18.172573v18.095789h-18.172573z"/><path d="m1025.5348 1215.2814h9.074653v9.074653h-9.074653z" fill="#fff"/><path d="m1034.6412 1224.3444h9.074653v9.074653h-9.074653z" fill="#fff"/></g></pattern><clipPath id="e"><path d="m683.1405 104.1039h1511.7875v1003.7479h-1511.7875z" transform="matrix(-.7183395 .6956928 -.6956928 -.7183395 0 0)"/></clipPath><g transform="translate(2047.7528 -153.52072)"><use height="1052.3622" stroke="#fff" stroke-width="2" width="744.09448" xlink:href="#s"/><use height="1052.3622" stroke="#fff" stroke-width="2" width="744.09448" xlink:href="#i"/><use height="1052.3622" stroke="#fff" stroke-width="2" width="744.09448" xlink:href="#j"/><use height="1052.3622" stroke="#fff" stroke-width="2" width="744.09448" xlink:href="#k"/><use height="1052.3622" stroke="#fff" stroke-width="2" width="744.09448" xlink:href="#l"/><use height="1052.3622" stroke="#fff" stroke-width="2" width="744.09448" xlink:href="#m"/><use height="1052.3622" stroke="#fff" stroke-width="7" width="744.09448" xlink:href="#h"/><use height="1052.3622" stroke="#fff" stroke-width="7" width="744.09448" xlink:href="#f"/><use height="1052.3622" stroke="#fff" stroke-width="12" width="744.09448" xlink:href="#g"/><path id="f" d="m-1995.3734 838.52848c8.3709-14.42819 27.9422-36.19108 38.3178-55.49486 16.3498-30.41845 41.9907-53.84286 68.4159-77.79863 26.7621-24.26119 51.4095-50.7578 77.0168-76.23484 8.3614-8.31891 17.2087-16.18364 25.0206-25.02066 15.0055-16.9747 27.7607-36.67424 41.8019-53.5944 8.2685-9.96389 18.834-18.44364 30.103-25.02066 6.02-3.51356 12.7875-5.72767 19.5474-7.42801 11.7253-2.94937 24.5111-.82592 35.9672-4.69138 7.6883-2.59417 14.0433-7.71006 20.7202-12.11938 19.9004-13.14194 39.7022-26.70529 57.4693-42.61332 19.3773-17.34972 28.5174-36.72445 50.6451-53.14425" fill="none"/><path id="g" d="m-1785.7292 792.86845c-67.4631 47.6329-136.8716 92.50853-206.8599 136.34679-10.3037 6.45387-19.757 14.98157-31.3516 18.63984-4.0422 1.27539-8.9373 2.93985-12.6804.95103-3.0093-1.59895-4.7806-5.48102-5.0722-8.87629-.8187-9.53376 7.0404-21.07515 9.7848-26.98746 18.7684-40.4325 32.5731-75.25655 52.3492-111.10243 9.7931-17.75091 20.0392-35.44966 32.7158-51.27062 18.5455-23.14555 41.9063-41.98211 62.7681-63.06379 18.9528-19.15258 37.8814-38.3297 56.6921-57.62194 13.0861-13.42106 27.8076-25.46016 39.0764-40.4396 8.1158-10.78821 12.3066-24.14858 20.1823-35.11326 5.8625-8.16174 12.0461-16.40465 19.9717-22.58261 9.2179-7.18533 20.1804-12.05474 31.1401-16.11486 14.2066-5.26299 30.2284-4.67101 44.2326-10.45118 10.9909-4.53647 20.3412-11.6625 30.0033-18.28029 17.0568-11.68259 32.7571-25.23249 49.2299-37.72517 17.089-12.95998 34.0853-26.04969 51.461-38.62259 13.3104-9.63129 26.6578-19.23313 40.4294-28.19266 6.3654-4.14118 12.7691-8.25985 19.4855-11.80332 10.1861-5.37397 20.7582-10.02659 31.458-14.28671 28.2031-11.22903 57.5917-19.23915 86.1103-29.64094 108.264-39.48786 293.1142-113.21099 322.5788-124.36324 22.6881-8.58731 44.78584-19.5641 68.54911-24.44216 4.97826-1.02192 10.25088-2.03266 15.2165-.95103 7.05353 1.53641 13.18102 5.45684 18.70361 9.82732 5.62536 4.4518 8.98322 10.71891 13.72938 15.85051 2.44332 2.64173 4.34429 5.40993 7.1933 7.29124 3.90756 2.58031 8.23097 3.99314 12.68041 4.75515 4.08707.69995 8.12389.25064 12.04639-.63402 13.47671-3.03945 25.34866-11.03439 38.31668-15.79783 7.63492-2.80447 15.21107-6.06974 23.21569-7.51304 6.25256-1.12739 12.84477-2.2351 19.04187-.83459 6.48144 1.46478 13.05132 4.55432 17.60471 9.35229 32.57422 34.32396 68.02275 76.28376 101.41094 114.96938 9.19604 10.6551 18.7466 21.03913 27.24162 32.26111 3.34682 4.42117 7.13555 8.68262 9.31992 13.77932 2.71702 6.33951 5.09616 13.35105 4.41688 20.21473-.54526 5.50943-3.39367 10.7443-6.65721 15.21649-2.79802 3.83426-6.5476 7.08539-10.68316 9.41512-4.23868 2.38782-9.10345 3.73203-13.92719 4.36421-4.1389.54243-8.47818.53765-12.51128-.53882-4.98042-1.32932-9.6397-3.98067-13.72664-7.12211-5.88512-4.52362-10.20033-10.79654-14.99469-16.46328-16.80602-19.86403-36.46855-48.67955-48.20682-61.39464-3.8937-4.21773-10.70563-5.85072-16.61115-6.84762-5.53122-.93371-11.35495-.39092-16.80155.95103-10.48889 2.5843-19.56952 9.16499-29.50322 13.40964-13.86635 5.92507-27.95673 11.31293-41.99323 16.8228-15.83221 6.21476-31.52489 12.83056-47.62548 18.31266-17.53362 5.97003-35.38844 10.97628-53.25773 15.85052-33.16096 9.04537-66.94416 15.70668-100.08016 24.84326-9.7944 2.7006-19.8704 4.75196-29.1649 8.85502-7.09 3.1299-13.9835 6.97978-19.9818 11.88742-5.0761 4.15307-10.0042 8.8603-13.2091 14.58247-3.9907 7.1253-5.5085 15.46241-6.8902 23.51144-1.2485 7.27362-1.1231 14.7272-1.2153 22.10663-.1087 8.70699-.2727 17.46774.7819 26.11131 1.2962 10.62416 3.285 21.26913 6.7839 31.38402 2.9508 8.53052 6.5939 17.01203 11.856 24.34601 3.5182 4.90342 8.2055 8.90703 12.881 12.72293 5.0928 4.15653 10.7589 7.57577 16.3893 10.96875 6.4793 3.90454 12.9479 7.96882 19.9717 10.77835 25.8772 10.35099 53.8898 14.26513 80.6685 21.99016 35.77334 10.31979 71.46774 20.95401 106.85272 32.53561 12.4506 4.07512 25.52589 6.84189 37.09021 12.99742 5.21868 2.77783 10.22039 6.24897 14.21279 10.60922 4.11526 4.49441 7.66833 9.777 9.60551 15.55476 2.00865 5.99092 2.42127 12.58714 1.77544 18.87274-.67802 6.59896-3.13674 12.75078-5.07216 19.02062-3.29403 10.67111-9.37446 20.57461-11.11663 31.60584-1.03499 6.55341-.95688 13.42418.49631 19.89771 1.54396 6.87791 4.43578 13.62044 8.55928 19.33763 1.83785 2.54817 4.42632 4.50198 6.97423 6.3402 16.6768 12.03165 35.0667 21.8406 53.77624 30.23245 25.09454 11.25573 53.03505 21.48818 74.86617 39.31943 5.17668 4.22822 9.8166 9.4941 12.68041 15.5335 2.49507 5.26178 3.93096 11.31213 3.48711 17.11856-.56373 7.37471-3.87614 14.4746-7.68218 20.81638-14.20248 23.66475-26.91889 43.25151-43.85278 64.13123-4.81571 5.9378-10.91827 10.9691-17.56218 14.7515-5.85985 3.3361-12.17858 5.5609-18.70361 6.6785-9.41546 1.6128-18.9175 1.0666-28.26659-.1054-18.01915-2.2588-35.62573-7.4797-52.84459-13.2506-15.93641-5.3411-31.73219-11.51717-46.42122-19.68592-19.40702-10.79248-37.19441-24.40485-54.45184-38.37952-17.36931-14.06527-34.20019-28.98774-49.17914-45.57554-19.6266-21.73462-35.9563-46.2591-52.8558-70.17575-13.6581-19.32944-24.7379-40.46589-39.1928-59.20698-11.0578-14.33677-22.0725-29.16913-36.1918-40.50338-12.721-10.21177-28.0794-16.66964-42.6799-23.94491-15.2914-7.61955-30.8067-14.95927-46.9387-20.58441-26.3057-9.17263-53.357-16.60149-80.8164-21.30347-10.84-1.85618-21.9417-3.78639-32.8841-2.68396-10.9469 1.10289-21.5093 5.04819-31.701 9.1933-17.1354 6.96924-32.5314 17.62488-48.9573 26.13257-22.7858 11.80168-44.9891 24.96619-68.7912 34.55412-11.7934 4.7506-24.1638 7.95816-36.4349 11.28575-12.5672 3.40788-25.3224 6.0876-38.0413 8.87629-41.2206 9.03784-107.092 25.43683-124.0139 25.45509-3.4028.004-8.8068-3.63976-10.7571-7.56574-1.3172-2.65149.1623-5.91969.317-8.87629.321-6.13503 2.8721-12.45628 1.2681-18.3866-.8341-3.08385-2.7788-6.08362-5.3892-7.92525-2.0524-1.44794-4.7881-2.10965-7.2912-1.90207-4.384.36355-8.517 2.7635-12.0464 5.38918-24.1227 17.94583-43.815 34.20182-66.5093 50.22534z" fill="none"/><path id="h" d="m-1695.7851 769.17357s3.9893-10.33969 4.7977-15.77657c.7615-5.12153 1.2018-10.4971 0-15.53351-.8275-3.46734-2.336-6.99389-4.8291-9.54172-2.8621-2.9249-6.7762-5.22754-10.831-5.78013-5.1491-.70171-10.3707 1.51485-15.2165 3.39192-6.8837 2.66646-13.0246 6.98788-19.2211 11.00016-8.3726 5.42131-16.1411 11.72305-24.1889 17.61582-4.8559 3.55559-10.0602 6.68528-14.54 10.70441-7.2869 6.53761-11.3736 15.24248-19.8663 21.63063-12.9701 9.75603-61.311 42.19442-92.0282 63.2015-35.2993 24.14067-72.7104 49.21248-106.0394 72.21457-2.8006 1.93285-5.8249 3.95553-9.1933 4.43814-2.5451.36465-5.3367-.0638-7.6083-1.26804-2.7075-1.43534-5.1111-3.85008-6.3402-6.65721-1.3167-3.00695-.9362-6.55867-.634-9.82732.8243-8.91648 3.8594-17.5163 6.6146-26.03641 3.0873-9.54758 11.0741-27.99211 11.0741-27.99211" fill="none"/><g enable-background="new" stroke="#fff" stroke-width=".511371" transform="matrix(1.9555278 0 0 1.9555278 -6035.8615 -1594.8884)"><text font-family="Times New Roman" font-size="64" x="2073.4658" y="964.98792"><tspan stroke-width=".511371" x="2073.4658" y="964.98792">N</tspan></text><path d="m2127.178 949.75607 52.2629-16.36506-10.2135 11.94537 12.4741 9.56094z" fill="#f00" stroke-linecap="round"/></g><use height="1052.3622" stroke="#000" stroke-width="10" width="744.09448" xlink:href="#g"/><use height="1052.3622" stroke="#c0c0c0" stroke-width="5" width="744.09448" xlink:href="#f"/><path d="m-1671.1562 484.25-.1563.875.5937.65625.3438.0625 2.2188.0312h.031l2.8125.15625h.031l.8124.0937.8438-.3125.25-.875-.5312-.6875-.3438-.125-.8438-.0625-.062-.0312-2.9063-.15625h-.031l-2.25-.0312zm-6.2188-.125-.031.0312-3.1876.3125h-.031l-1.8125.25-.75.5-.031.875.6876.59375h.3437l1.8125-.25h.031l3.0938-.3125h.031l.9376-.0625.7812-.4375.094-.90625-.6563-.59375-.3437-.0625zm18.2812 1.15625-.3437.8125.4687.78125.3126.125 1.2187.28125h.062l2.3125.65625.062.0312 1.9688.71875.875-.0937.4687-.78125-.3437-.8125-.3126-.1875-2.0312-.75-.062-.0312-2.4375-.6875h-.062l-1.2813-.28125zm-31.2812.78125-3.25.75h-.031l-.6876.1875-.6562.59375.062.875.75.5.3437-.0312.6563-.1875h.031l3.1874-.71875h.031l1.9063-.375.7187-.5625-.031-.875-.7187-.53125h-.3437zm-9.8125 2.5625-3.0937 1h-.063l-.875.34375-.062.0312-1.125.5-.063.0312-.4687.21875-.5313.71875.25.875.8438.3125.3438-.0937.4374-.21875.031-.0312 1.0625-.46875.031-.0312.8126-.3125h.031l3.0625-1 .625-.625-.094-.875-.7813-.4375zm51.8125 1.65625.062.875.25.28125.7187.5625.063.0312.6874.625.063.0625.6562.65625.031.0312.5938.6875.062.0625.5313.71875.031.0312.4375.625.75.46875.8437-.375.1876-.875-.125-.3125-.4688-.6875-.031-.0625-.625-.8125-.031-.0625-.6875-.78125-.062-.0312-.7187-.75-.063-.0312-.7812-.7187-.062-.0312-.7813-.625-.875-.15625zm-62.9062 3.28125-.875.46875-4.375 2.46875-.5.75.3124.84375.8438.28125.3438-.125 4.3437-2.46875.875-.46875.5-.71875-.2813-.875-.8437-.28125zm-10.4376 5.96875-4.9374 2.9375-.2188.15625-.5.75.3438.84375.875.25.3124-.15625.2188-.125 4.9375-2.9375.4687-.75-.3124-.84375-.875-.25zm79.5.84375v.34375l.125.65625v.0625l.125 1.03125v.0625l.063 1.09375h-.031v1.1875.0625l-.094 1.1875v.0625l-.031.28125.3125.84375.8438.25.7187-.5.094-.34375.063-.34375v-.0625l.094-1.28125v-.0625-1.25-.0625l-.031-1.21875v-.0625l-.125-1.15625-.031-.0625-.125-.71875-.5312-.71875h-.875zm-89.7812 5.375-5.125 3.125-.4688.78125.3126.8125.875.25.3437-.125 5.0937-3.125.4688-.78125-.3125-.8125-.875-.25zm88.875 6.03125-.1562.3125-.3126.96875v.0312l-.5312 1.5h-.031l-.625 1.625v.0312l-.5938 1.34375.031.875.75.5.8438-.28125.1875-.3125.625-1.375v-.0312l.6563-1.625v-.0312l.5624-1.59375.031-.0312.3125-1-.1562-.875-.7813-.4375zm-99.0938.3125-5.0624 3.1875-.4688.78125.3438.84375.875.21875.3124-.125 5.0626-3.21875.4687-.78125-.3437-.8125-.8438-.21875zm-10.125 6.46875-1.5.96875h-.031l-3.4688 2.3125-.4687.78125.375.8125.875.21875.3125-.125 3.4688-2.3125h.031l1.5-1 .4688-.78125-.375-.8125-.8438-.21875zm103.6876 3.28125-.4688.34375-.062.0312-1.7187 1.125h-.031l-2.0625 1.21875h-.031l-.625.34375-.5.71875.25.84375.875.28125.3124-.0937.6563-.34375h.031l2.125-1.25.062-.0312 1.8126-1.15625.031-.0312.5312-.40625.4063-.8125-.4063-.78125-.875-.15625zm-113.6876 3.375-.375.25-3.4374 2.4375-.031.0312-1.0625.8125-.4062.78125.4062.8125.875.15625.3125-.15625 1.0625-.8125v.0312l3.4062-2.4375h.031l.3437-.25.4376-.78125-.375-.8125-.875-.21875zm103.375 2.375-2.1562 1.03125-3.2812 1.4375-.5626.71875.2188.84375.8438.375.3437-.0937 3.25-1.46875h.031l2.1874-1.0625.5313-.6875-.2187-.875-.8438-.3125zm-10.9062 4.875-5.0938 2.15625-.4062.1875-.5938.65625.1876.875.8124.375.3438-.0625.4062-.15625.031-.0312 5.0937-2.15625.5938-.6875-.2188-.875-.8124-.34375zm-102.0312.25-4.2813 4.1875-.2813.875.5.71875.875.0625.3126-.21875 4.2812-4.1875.2812-.84375-.5-.75-.875-.0312zm90.9687 4.34375-1.75.71875-3.8125 1.5-.5938.6875.1876.875.8124.375.3438-.0625 3.8125-1.53125 1.75-.71875.5937-.65625-.1874-.875-.8126-.375zm-99.5313 4.09375-1.25 1.25h-.031l-2.9375 3-.2813.84375.5.75.9063.0312.2813-.21875 2.9687-3 1.25-1.25.2813-.84375-.5-.75-.875-.0312zm88.4063.34375-5.5937 2.1875-.5938.65625.1562.875.8126.40625.3437-.0937 5.5937-2.15625.5938-.6875-.1562-.875-.8126-.375zm-11.1875 4.375-3.0938 1.1875-2.5 1-.5937.65625.1563.875.8124.375.3438-.0625 2.5-.96875 3.0938-1.21875.5937-.65625-.1563-.875-.8124-.40625zm-85.6562 3.84375-4.1563 4.34375-.25.84375.5313.71875h.9062l.2812-.1875 4.125-4.34375.2813-.84375-.5313-.75h-.9062zm74.4687.53125-5.5625 2.21875-.5938.65625.1876.875.7812.40625.375-.0937 5.5625-2.21875.5937-.65625-.1874-.875-.8126-.375zm-11.125 4.5-.5313.21875-.031.0312-4.6562 2.0625h-.031l-.2813.15625-.5624.6875.25.875.8437.3125.3437-.0937.2188-.125h.031l4.625-2.03125.031-.0312.5-.1875.5937-.6875-.1874-.875-.8126-.375zm-71.5937 3.6875-1.5313 1.625-2.5313 2.78125-.25.875.5313.71875.9063-.0312.2812-.21875 2.5312-2.78125 1.5-1.625.25-.84375-.5312-.71875h-.875zm60.625 2.0625-2.625 2.84375v.0312l-1.4063 1.59375-.25.84375.5625.71875.9062-.0312.2813-.21875 1.375-1.5625.031-.0312 2.5937-2.84375.25-.84375-.5313-.71875h-.9062zm-68.4376 6.625-.2812.21875-1.0312 1.15625-2.9063 3.375-.2187.875.5624.6875.875-.0312.2813-.21875 2.9063-3.375 1.0312-1.15625.2188-.84375-.5313-.71875zm60.7188 2.125-.2812.21875-.5938.6875-3.0625 3.625h-.031l-.2187.28125-.1875.875.5625.6875.9063-.0625.25-.21875.2187-.25.031-.0312 3.0624-3.59375v-.0312l.5626-.65625.2187-.875-.5625-.6875zm-68.5625 7-.25.21875-.8437.96875-2.9688 3.6875-.2188.875.5938.6875.9062-.0625.25-.25 3-3.65625h-.031l.8438-.96875.1874-.875-.5624-.6875zm60.8125 2.1875-.2812.25-2.2813 2.75-1.5313 1.875-.1874.875.5624.6875.9063-.0625.25-.25 1.5625-1.84375v-.0312l2.2812-2.71875.1876-.875-.5626-.6875zm-68.3438 7.1875-.25.21875-.625.8125h-.031l-2.9688 4-.1562.875.5938.65625.9062-.0937.25-.21875 2.9688-4 .625-.78125.1874-.90625-.5937-.65625zm60.7188 2.09375-.2812.21875-1.1876 1.46875-2.625 3.15625-.1874.875.5624.6875.9063-.0625.25-.21875 2.625-3.1875 1.2187-1.4375.1876-.875-.5938-.6875zm-67.8438 7.59375-.25.25-.2812.40625-3.0625 4.59375-.031.0312-.094.90625.6875.59375.875-.1875.1875-.21875h.031v-.0312h.031l3-4.53125.031-.0312.25-.375.125-.875-.625-.65625zm60.2188 1.65625-.2812.21875-.25.3125-.031.0312-3.5625 4.25-.2188.875.5626.6875.9062-.0312.2812-.25 3.5938-4.25v-.0312l.25-.3125.2188-.875-.5938-.6875zm-66.7812 8.5-.2188.28125-.9688 1.65625v.0312l-1.2187 2.1875v.0312l-.7187 1.375v.90625l.6874.5625.875-.25.2188-.28125.7188-1.375h-.031l1.2187-2.1875v-.0312l.9688-1.625.031-.90625-.6874-.5625zm59.0624.6875-.2812.21875-2.75 3.1875-1.1562 1.34375-.25.84375.5624.71875.9063-.0312.2813-.21875 1.1562-1.34375 2.7812-3.21875.2188-.84375-.5938-.71875zm-7.9062 9-.2812.21875-1.6876 1.84375v.0312l-2.375 2.53125-.25.84375.5626.71875h.875l.2812-.21875 2.375-2.53125 1.7188-1.875.2187-.875-.5313-.71875zm-56.6875 1.09375-.1875.3125-.7188 1.71875v.0312l-.7812 2.0625v.0312l-.5938 1.84375.125.875.7813.4375.8125-.375.1875-.3125.5937-1.84375.7188-1.96875.031-.0312.6876-1.71875-.063-.90625-.75-.46875zm48.2187 7.84375-.2812.28125-.031.0312-3.3438 3.3125-.031.0312-.5626.5-.3124.84375.5.75.9062.0625.2812-.1875.5626-.53125.031-.0312 3.4062-3.34375.3126-.34375.2812-.84375-.5312-.71875-.9063-.0312zm-51.75 3.8125-.094.34375-.031.0312v.0625l-.1874 1.78125v.0937l-.031 1.71875v.0937l.062 1.65625.031.0937.094.75.5.71875.9062.0625.5626-.71875v-.34375l-.094-.65625v-.0937l-.062-1.5v-.0625-.0312l.031-1.5625v-.0937l.1874-1.65625v-.0312-.0312l-.2812-.8125-.8438-.3125zm43.125 4.375-1.6874 1.5-.031.0312-2.8437 2.3125-.375.8125.4374.78125.875.125.3126-.15625 2.875-2.375h.031l1.7188-1.53125.3437-.8125-.4687-.78125-.9063-.0625zm-41.1562 7.09375-.2188.875.125.3125.5938.9375.062.0937.9687 1.21875.094.0937 1.1562 1.15625.063.0625 1.3437 1.0625.062.0625 1.2188.78125.062.0625 1.25.6875.094.0312 1.2812.5625.063.0312 1.3124.40625.094.0312.1875.0625.875-.21875.3437-.8125-.4374-.78125-.3438-.15625h-.094l-.094-.0312-1.125-.375-.062-.0312-1.125-.5-.094-.0312-1.0937-.59375-.062-.0312-1.0625-.71875-.094-.0625-1.1563-.9375-.094-.0625-.9688-1-.9375-1.125-.062-.0625v-.0312l-.5312-.84375-.75-.46875zm31.8125.28125-.4063.3125h-.031l-1.5625 1-.031.0312-1.5.90625-.031.0312-1.4688.8125-.5.75.3126.84375.8437.25.3437-.0937 1.4688-.84375h.031l1.5626-.96875.031-.0312 1.5938-1.03125h.031l.4688-.3125.4374-.8125-.375-.8125-.875-.1875zm-10.3437 5.46875-.7188.25v.0312l-1.375.375h-.031l-1.3438.3125-1.375.25v-.0312l-.75.0937-.75.46875-.062.875.6563.59375.3437.0312.75-.0625h.062l1.4375-.25h.062l1.4688-.34375h.062l1.4688-.4375.062-.0312.7187-.25.625-.625-.1562-.90625-.7812-.40625z" fill="#000096" stroke="#fff"/><use height="1052.3622" stroke="#000" stroke-width="5" width="744.09448" xlink:href="#h"/><g clip-path="url(#a)" enable-background="new" stroke-linecap="round" transform="matrix(-.22470384 1.2688668 -1.2688668 -.22470384 -402.8245 -846.38773)"><path clip-path="url(#b)" d="m1695.937 1398.5206h-24.4812l12.2406-21.2013z" fill="#f00" stroke="#fff" stroke-width=".867217" transform="matrix(-.358939 .3679125 -1.1151124 -1.0879142 3587.0721 1686.6577)"/><path clip-path="url(#e)" d="m-1620.8837 376.01733h13.041035v53.588943h-13.041035z" fill="url(#c)" stroke="#000" stroke-linejoin="round" stroke-width=".77603" transform="matrix(-.7183395 -.6956928 .6956928 -.7183395 0 0)"/></g><text id="i" font-family="Times New Roman" font-size="32" transform="matrix(.92598681 -.37755585 .37755585 .92598681 0 0)" x="-1434.0881" y="-228.73409"><tspan x="-1434.0881" y="-228.73409">Kemmel Straight</tspan></text><text id="j" font-family="Times New Roman" font-size="32" x="-828.59436" y="790.34717"><tspan x="-828.59436" y="790.34717">Campus</tspan></text><text id="k" font-family="Times New Roman" font-size="32" x="-811.79852" y="916.87585"><tspan x="-811.79852" y="916.87585">Stavelot</tspan></text><text id="l" font-family="Times New Roman" font-size="32" x="-1054.7783" y="972.86188"><tspan x="-1054.7783" y="972.86188">Courbe</tspan><tspan x="-1054.7783" y="1004.8619">Paul Frère</tspan></text><text id="m" font-family="Times New Roman" font-size="32" x="-1280.9622" y="813.86139"><tspan x="-1280.9622" y="813.86139">Blanchimont</tspan></text><path d="m-1710.1562 714.90625h-.063l-1.3124.15625h-.063l-1.2812.21875-.062.0312-1.2187.28125h-.063l-.5937.1875-.6563.625.094.875.7812.46875.3438-.0625.5312-.15625h.063l1.125-.28125h.062l1.1563-.21875v.0312l1.25-.15625h.062l1.25-.0625h.062.062l.8125-.40625.1563-.875-.625-.65625-.3438-.0625h-.125-.062zm6.8437.71875-.3437.8125.4687.78125.3125.125 1.2812.28125h.031l1.5.40625.062.0312 1.5625.5 1.1875.4375.875-.0937.4688-.78125-.3438-.84375-.3125-.15625-1.2187-.46875h-.031l-1.625-.53125h-.062l-1.5938-.4375h-.031l-1.3125-.28125zm-17.1875 2.78125-.4375.3125-.062.0312-.9062.6875-.063.0312-.8437.71875-.062.0312-.8125.75-.031.0625-.7812.78125-.031.0625-.625.71875-.2188.875.5625.6875.9063-.0312.25-.21875.5937-.6875.062-.0625.6875-.71875.031-.0312.75-.6875.031-.0312.7812-.65625.031-.0312.8437-.625.031-.0312.4063-.25.4374-.78125-.3437-.8125-.875-.21875zm28.0312 1.96875.1876.875.25.21875.1874.125.031.0312.8125.53125.031.0312.7813.59375.062.0312 1.625 1.4375.031.0312.875.875.8438.28125.75-.5.031-.90625-.2187-.28125-.9063-.90625-.062-.0625-1.7188-1.5-.062-.0312-.8437-.6875-.063-.0312-.875-.59375-.031-.0312-.2188-.125-.9062-.0937zm-35.75 7.3125-.1874.3125-.25.59375v.0312l-.3438 1-.031.0625-.2813 1.03125-.031.0312-.25 1.03125v.0625l-.1874 1.03125v.0312l-.125 1.0625v.0312l-.031.0937.375.84375.8437.21875.7188-.5625.062-.34375v-.0625l.031-.0312h-.031l.125-.9375v-.0625l.1875-.90625v-.0625l.2188-.9375v-.0312l.25-.90625h.031v-.0625l.3125-.90625h.031l.2187-.59375-.062-.875-.75-.5zm44.4063.75-.125.875.1563.3125.031.0625.031.0312 1.4063 2 .031.0625 1.25 2.03125.031.0625.3438.65625.75.53125.8437-.28125.2813-.875-.094-.3125-.4062-.71875-.031-.0625-1.3125-2.125-.031-.0625-1.4376-2.09375-.031-.0312-.094-.0937-.8124-.40625zm5.9063 10.28125-.375.8125.062.34375.094.21875v.0625h.031l.5313 1.90625v.0625l.1875.84375v.0625l.125.8125v.0625l.062.78125v.0625l.031.625.4062.8125.875.15625.6562-.625.063-.34375-.031-.71875v-.0625l-.062-.90625v-.0625l-.1562-.9375v-.0625l-.2188-.96875v-.0937l-.5938-2.03125-.031-.0625-.094-.3125-.6562-.59375zm-51.0626.53125-.5.75.031.34375v.0625l.031.0625.2812.96875.031.0625.3438.96875.031.0625.4063.9375.031.0625.5.90625.031.0625.5312.875.031.0625.4687.65625.8126.40625.8124-.375.1563-.875-.1563-.34375-.4374-.59375-.031-.0625-.4687-.75-.031-.0625-.4063-.78125v-.0312l-.031-.0312-.375-.8125-.031-.0625-.2813-.84375-.031-.0625-.25-.84375-.031-.0625-.5625-.6875zm6.5313 10 .1875.875.2812.21875.75.4375.063.0625 1.0624.53125.063.0312 1.1562.46875.062.0312 1.2187.4375h.063l1.2812.375.062.0312h.031l.875-.21875.3437-.84375-.4687-.75-.3126-.15625h-.031v.0312l-1.1875-.34375v-.0312h-.062l-1.0938-.375v-.0312l-1.0937-.4375-.062-.0312-.9688-.5-.062-.0312-.6876-.40625-.875-.0625zm43.5625.9375-.2188.28125v.0312l-1.1562 2.3125v.0312l-1 2.15625v.0312l-.4062.96875.062.875.75.5.8438-.3125.1875-.3125.4063-.9375v-.0312l.9687-2.09375v-.0312l1.125-2.25v-.0312l.031-.875-.7188-.53125zm-29.5312 1.40625h-.031-.031l-1.5312-.0312-.7812.40625-.1876.875.625.65625.3438.0625h1.5625.031l1.6562-.0312h.094.5312l.4375.125.25.15625.2187.21875.063.0937.031-.0312.625.4375.8438-.28125.2812-.84375-.125-.34375-.062-.125-.125-.1875-.4063-.4375-.2187-.15625-.5-.3125-.25-.0937-.625-.15625-.2187-.0625h-.75-.094zm3.4687 7.34375-.125.34375-.125.84375h.031l-.5 2.34375h.031l-.5938 2.5v.125l.2188.875.8125.34375.7813-.46875.125-.3125.031-.125.5625-2.53125.4687-2.40625.031-.0312.125-.84375-.2813-.875-.8437-.28125zm21.4063 2.53125-.125.3125-.1876.65625v.0312l-.3437 1.53125v.0625l-.25 1.40625v.0625l-.125 1.34375v.0625l-.031.96875.375.8125.875.1875.6563-.5625.094-.34375.031-.9375v-.0625l.125-1.21875v-.0625l.2187-1.34375.3126-1.4375v-.0312l.1562-.59375-.1562-.875-.8126-.40625zm-23.8438 9.1875-.125.34375-.3438 1.8125v.0312l-.3124 2.46875-.031.0625-.062 1.15625v.0312l-.031.53125.4062.8125.875.1875.6562-.625.063-.34375.031-.46875v-.0312l.062-1.0625v-.0625l.3125-2.34375v-.0312l.3438-1.78125-.25-.84375-.8438-.3125zm24.125 2.375-.4062.8125.062.34375.4688 1.28125v.0625l.7188 1.65625.6874 1.59375v.0312l.375.9375.6563.625.875-.1875.4063-.78125-.063-.375-.375-.96875-.031-.0312-.7188-1.625h.031l-.6875-1.59375-.031-.0625-.4376-1.25-.6562-.625zm-23.2812 9.15625-.125.90625.1874.28125.031.0625.094.0937 1.375 1.25.063.0312 1.5937 1.21875.062.0312 1.75 1.15625.875.125.625-.65625-.1562-.875-.25-.25-1.6876-1.125-.062-.0312-1.4688-1.125-.062-.0625-1.2187-1.0625-.031-.0312-.062-.0625-.031.0312-.7188-.34375zm26.3124 2.71875-.062.34375-.031.6875h.031l-.125 1.0625v.0625l-.1563 1.09375-.031.0937-.094.40625-.031.0937-.031.0625-.125.28125-.062.0625-.031.0937-.2812.34375-.1875.21875-.094.0625-.031.0312-.2813.1875-.094.0625h-.031l-.4687.21875-.4375.15625-.094.0312-.625.125-.5624.0625-.75.5-.031.90625.6875.5625.3438.0312.6874-.0937h.063l.7187-.1875.125-.0312.6563-.21875.125-.0312.5937-.3125.125-.0625.5-.375.1563-.0937.4374-.4375.094-.15625.375-.5.094-.15625.2812-.59375.062-.15625.094-.4375.063-.21875.031-.125.2188-1.25v-.0937l.094-1.1875v-.0625l.031-.6875-.4063-.8125-.875-.1875zm-15.9062 3.375-.5.75.3125.84375.2813.1875.7187.3125.062.0312 2.0938.8125h.062l2.0938.65625.062.0312.75.15625.875-.1875.3437-.8125-.4374-.78125-.3126-.15625-.6874-.15625-.063-.0312-1.9687-.59375-.062-.0312-2-.75-.031-.0312-.6876-.28125z" fill="#000096" stroke="#fff"/><use height="1052.3622" stroke="#fff" stroke-width="2" width="744.09448" xlink:href="#n"/><text id="n" font-family="Times New Roman" font-size="32" x="-1922.1981" y="967.72705"><tspan x="-1922.1981" y="967.72705">La Source</tspan></text><path d="m1695.937 1398.5206h-24.4812l12.2406-21.2013z" stroke="#fff" stroke-linecap="round" stroke-width=".563265" transform="matrix(.0882521 -1.0225387 3.0595574 .26517325 -6360.5421 2307.5083)"/><path d="m2241.9491 1250.9447c0 11.2302-9.1039 20.3342-20.3341 20.3342-11.2303 0-20.3342-9.104-20.3342-20.3342s9.1039-20.3342 20.3342-20.3342c11.2302 0 20.3341 9.104 20.3341 20.3342z" fill="#fff" stroke="#0c0c0c" stroke-linecap="round" stroke-linejoin="round" stroke-width=".714286" transform="matrix(1.4 0 0 1.4 -4865.81556 -794.504028)"/><text font-family="Times New Roman" font-size="40" transform="matrix(1.4 0 0 1.4 -3252.1674554 -553.29079)" x="1059.1068" y="1092.1652"><tspan x="1059.1068" y="1092.1652">1</tspan></text><path d="m2241.9491 1250.9447c0 11.2302-9.1039 20.3342-20.3341 20.3342-11.2303 0-20.3342-9.104-20.3342-20.3342s9.1039-20.3342 20.3342-20.3342c11.2302 0 20.3341 9.104 20.3341 20.3342z" fill="#fff" stroke="#0c0c0c" stroke-linecap="round" stroke-linejoin="round" stroke-width=".714286" transform="matrix(1.4 0 0 1.4 -5093.76146 -1024.345738)"/><text font-family="Times New Roman" font-size="40" transform="matrix(1.4 0 0 1.4 -3480.1133554 -783.1325)" x="1059.1068" y="1092.1652"><tspan x="1059.1068" y="1092.1652">2</tspan></text><path d="m2241.9491 1250.9447c0 11.2302-9.1039 20.3342-20.3341 20.3342-11.2303 0-20.3342-9.104-20.3342-20.3342s9.1039-20.3342 20.3342-20.3342c11.2302 0 20.3341 9.104 20.3341 20.3342z" fill="#fff" stroke="#0c0c0c" stroke-linecap="round" stroke-linejoin="round" stroke-width=".714286" transform="matrix(1.4 0 0 1.4 -4614.92586 -1424.314338)"/><text font-family="Times New Roman" font-size="40" transform="matrix(1.4 0 0 1.4 -3001.2777554 -1183.1011)" x="1059.1068" y="1092.1652"><tspan x="1059.1068" y="1092.1652">6</tspan></text><use height="1052.3622" stroke="#fff" stroke-width="2" width="744.09448" xlink:href="#o"/><text id="o" font-family="Times New Roman" font-size="32" x="-934.96802" y="176.73947"><tspan x="-934.96802" y="176.73947">Les Combes</tspan></text><path d="m2241.9491 1250.9447c0 11.2302-9.1039 20.3342-20.3341 20.3342-11.2303 0-20.3342-9.104-20.3342-20.3342s9.1039-20.3342 20.3342-20.3342c11.2302 0 20.3341 9.104 20.3341 20.3342z" fill="#fff" stroke="#0c0c0c" stroke-linecap="round" stroke-linejoin="round" stroke-width=".714286" transform="matrix(1.4 0 0 1.4 -4081.94006 -1529.920438)"/><text font-family="Times New Roman" font-size="40" transform="matrix(1.4 0 0 1.4 -2468.2919554 -1288.7072)" x="1059.1068" y="1092.1652"><tspan x="1059.1068" y="1092.1652">7</tspan></text><path d="m2241.9491 1250.9447c0 11.2302-9.1039 20.3342-20.3341 20.3342-11.2303 0-20.3342-9.104-20.3342-20.3342s9.1039-20.3342 20.3342-20.3342c11.2302 0 20.3341 9.104 20.3341 20.3342z" fill="#fff" stroke="#0c0c0c" stroke-linecap="round" stroke-linejoin="round" stroke-width=".714286" transform="matrix(1.4 0 0 1.4 -4017.02796 -1496.894938)"/><text font-family="Times New Roman" font-size="40" transform="matrix(1.4 0 0 1.4 -2403.3798554 -1255.6817)" x="1059.1068" y="1092.1652"><tspan x="1059.1068" y="1092.1652">8</tspan></text><path d="m2241.9491 1250.9447c0 11.2302-9.1039 20.3342-20.3341 20.3342-11.2303 0-20.3342-9.104-20.3342-20.3342s9.1039-20.3342 20.3342-20.3342c11.2302 0 20.3341 9.104 20.3341 20.3342z" fill="#fff" stroke="#0c0c0c" stroke-linecap="round" stroke-linejoin="round" stroke-width=".714286" transform="matrix(1.4 0 0 1.4 -3933.89486 -1519.671138)"/><text font-family="Times New Roman" font-size="40" transform="matrix(1.4 0 0 1.4 -2320.2467554 -1278.4579)" x="1059.1068" y="1092.1652"><tspan x="1059.1068" y="1092.1652">9</tspan></text><use height="1052.3622" stroke="#fff" stroke-width="2" width="744.09448" xlink:href="#p"/><text id="p" font-family="Times New Roman" font-size="32" x="-1134.2786" y="500.33917"><tspan x="-1134.2786" y="500.33917">Pouhon</tspan></text><path d="m2241.9491 1250.9447c0 11.2302-9.1039 20.3342-20.3341 20.3342-11.2303 0-20.3342-9.104-20.3342-20.3342s9.1039-20.3342 20.3342-20.3342c11.2302 0 20.3341 9.104 20.3341 20.3342z" fill="#fff" stroke="#0c0c0c" stroke-linecap="round" stroke-linejoin="round" stroke-width=".714286" transform="matrix(1.4 0 0 1.4 -4304.00796 -1248.634438)"/><text font-family="Times New Roman" font-size="40" transform="matrix(1.4 0 0 1.4 -2706.7797554 -1007.4212)" x="1059.1068" y="1092.1652"><tspan x="1059.1068" y="1092.1652">12</tspan></text><path d="m2241.9491 1250.9447c0 11.2302-9.1039 20.3342-20.3341 20.3342-11.2303 0-20.3342-9.104-20.3342-20.3342s9.1039-20.3342 20.3342-20.3342c11.2302 0 20.3341 9.104 20.3341 20.3342z" fill="#fff" stroke="#0c0c0c" stroke-linecap="round" stroke-linejoin="round" stroke-width=".714286" transform="matrix(1.4 0 0 1.4 -3912.25746 -1080.090618)"/><text font-family="Times New Roman" font-size="40" transform="matrix(1.4 0 0 1.4 -2315.0292554 -838.87738)" x="1059.1068" y="1092.1652"><tspan x="1059.1068" y="1092.1652">13</tspan></text><path d="m2241.9491 1250.9447c0 11.2302-9.1039 20.3342-20.3341 20.3342-11.2303 0-20.3342-9.104-20.3342-20.3342s9.1039-20.3342 20.3342-20.3342c11.2302 0 20.3341 9.104 20.3341 20.3342z" fill="#fff" stroke="#0c0c0c" stroke-linecap="round" stroke-linejoin="round" stroke-width=".714286" transform="matrix(1.4 0 0 1.4 -3997.66816 -970.764898)"/><text font-family="Times New Roman" font-size="40" transform="matrix(1.4 0 0 1.4 -2400.4399554 -729.55166)" x="1059.1068" y="1092.1652"><tspan x="1059.1068" y="1092.1652">14</tspan></text><path d="m2241.9491 1250.9447c0 11.2302-9.1039 20.3342-20.3341 20.3342-11.2303 0-20.3342-9.104-20.3342-20.3342s9.1039-20.3342 20.3342-20.3342c11.2302 0 20.3341 9.104 20.3341 20.3342z" fill="#fff" stroke="#0c0c0c" stroke-linecap="round" stroke-linejoin="round" stroke-width=".714286" transform="matrix(1.4 0 0 1.4 -3802.93166 -921.796078)"/><text font-family="Times New Roman" font-size="40" transform="matrix(1.4 0 0 1.4 -2205.7034554 -680.58284)" x="1059.1068" y="1092.1652"><tspan x="1059.1068" y="1092.1652">15</tspan></text><path d="m2241.9491 1250.9447c0 11.2302-9.1039 20.3342-20.3341 20.3342-11.2303 0-20.3342-9.104-20.3342-20.3342s9.1039-20.3342 20.3342-20.3342c11.2302 0 20.3341 9.104 20.3341 20.3342z" fill="#fff" stroke="#0c0c0c" stroke-linecap="round" stroke-linejoin="round" stroke-width=".714286" transform="matrix(1.4 0 0 1.4 -3900.86936 -776.028438)"/><text font-family="Times New Roman" font-size="40" transform="matrix(1.4 0 0 1.4 -2303.6411554 -534.8152)" x="1059.1068" y="1092.1652"><tspan x="1059.1068" y="1092.1652">16</tspan></text><path d="m2241.9491 1250.9447c0 11.2302-9.1039 20.3342-20.3341 20.3342-11.2303 0-20.3342-9.104-20.3342-20.3342s9.1039-20.3342 20.3342-20.3342c11.2302 0 20.3341 9.104 20.3341 20.3342z" fill="#fff" stroke="#0c0c0c" stroke-linecap="round" stroke-linejoin="round" stroke-width=".714286" transform="matrix(1.4 0 0 1.4 -4201.51506 -1034.428888)"/><text font-family="Times New Roman" font-size="40" transform="matrix(1.4 0 0 1.4 -2604.2868554 -793.21565)" x="1059.1068" y="1092.1652"><tspan x="1059.1068" y="1092.1652">17</tspan></text><path d="m2241.9491 1250.9447c0 11.2302-9.1039 20.3342-20.3341 20.3342-11.2303 0-20.3342-9.104-20.3342-20.3342s9.1039-20.3342 20.3342-20.3342c11.2302 0 20.3341 9.104 20.3341 20.3342z" fill="#fff" stroke="#0c0c0c" stroke-linecap="round" stroke-linejoin="round" stroke-width=".714286" transform="matrix(1.4 0 0 1.4 -4446.35916 -1124.394848)"/><text font-family="Times New Roman" font-size="40" transform="matrix(1.4 0 0 1.4 -2849.1309554 -883.18161)" x="1059.1068" y="1092.1652"><tspan x="1059.1068" y="1092.1652">18</tspan></text><use height="1052.3622" stroke="#fff" stroke-width="2" width="744.09448" xlink:href="#q"/><text id="q" font-family="Times New Roman" font-size="32" x="-1571.2533" y="821.01117"><tspan x="-1571.2533" y="821.01117">Chicane</tspan></text><path d="m-1618.875 734.125-60.3438 27.46875 66.25-3.03125-2.4062-9.9375c20.2325-4.91172 43.7229-8.99148 61.9375-3.9375 9.3247 2.58731 17.2357 7.47307 22.9687 15.875 5.7332 8.40193 9.3035 20.44385 9.4376 37.46875l4-.0312c-.1384-17.56971-3.8246-30.45424-10.125-39.6875-6.3006-9.23326-15.1953-14.68756-25.2188-17.46875-7.5176-2.08589-15.6971-2.71993-24.0625-2.4375-13.4118.4528-27.3065 3.25705-39.875 6.3125l-2.5625-10.59375z" stroke="#fff" stroke-linecap="round"/><path d="m-1679.6064 788.40864c-1.4479 7.60075-19.4554.98126-26.0603-5.61413-6.0801-6.07136 7.596-30.76702-1.0336-30.27668-37.7525 2.14511-23.8009-51.35894 13.6926-32.75986 9.1828 4.55522 19.7291 22.11822 16.1162 28.7211-14.8655 27.16798-.052 25.95022-2.7149 39.92957z" style="fill:#7b7bff;fill-opacity:.211765;stroke:#000096;stroke-width:2;stroke-linecap:round;stroke-linejoin:round;stroke-dasharray:6 6"/><path d="m2241.9491 1250.9447c0 11.2302-9.1039 20.3342-20.3341 20.3342-11.2303 0-20.3342-9.104-20.3342-20.3342s9.1039-20.3342 20.3342-20.3342c11.2302 0 20.3341 9.104 20.3341 20.3342z" fill="#fff" stroke="#0c0c0c" stroke-linecap="round" stroke-linejoin="round" stroke-width=".714286" transform="matrix(1.4 0 0 1.4 -4810.77826 -918.270298)"/><text font-family="Times New Roman" font-size="40" transform="matrix(1.4 0 0 1.4 -3213.5500554 -677.05706)" x="1059.1068" y="1092.1652"><tspan x="1059.1068" y="1092.1652">19</tspan></text><g transform="matrix(1.4 0 0 1.4 -3164.9239 -817.13065)"><path d="m2245.2029 1250.9447c0 13.0272-10.5607 23.5879-23.5879 23.5879s-23.5879-10.5607-23.5879-23.5879 10.5607-23.5879 23.5879-23.5879 23.5879 10.5607 23.5879 23.5879z" fill="#fff" stroke="#0c0c0c" stroke-linecap="round" stroke-linejoin="round" stroke-width=".714286" transform="translate(-1148.7669 -172.29517)"/><text font-family="Times New Roman" font-size="40" x="1054.1482" y="1092.1652"><tspan x="1054.1482" y="1092.1652">20</tspan></text></g><use height="1052.3622" stroke="#fff" stroke-width="2" width="744.09448" xlink:href="#r"/><path d="m2241.9491 1250.9447c0 11.2302-9.1039 20.3342-20.3341 20.3342-11.2303 0-20.3342-9.104-20.3342-20.3342s9.1039-20.3342 20.3342-20.3342c11.2302 0 20.3341 9.104 20.3341 20.3342z" fill="#fff" stroke="#0c0c0c" stroke-linecap="round" stroke-linejoin="round" stroke-width=".714286" transform="matrix(1.4 0 0 1.4 -3909.75126 -1393.893538)"/><text font-family="Times New Roman" font-size="40" transform="matrix(1.4 0 0 1.4 -2312.5230554 -1152.6803)" x="1059.1068" y="1092.1652"><tspan x="1059.1068" y="1092.1652">11</tspan></text><text id="r" font-family="Times New Roman" font-size="32" x="-779.3266" y="440.9939"><tspan x="-779.3266" y="440.9939">Bruxelles</tspan></text><path d="m2241.9491 1250.9447c0 11.2302-9.1039 20.3342-20.3341 20.3342-11.2303 0-20.3342-9.104-20.3342-20.3342s9.1039-20.3342 20.3342-20.3342c11.2302 0 20.3341 9.104 20.3341 20.3342z" fill="#fff" stroke="#0c0c0c" stroke-linecap="round" stroke-linejoin="round" stroke-width=".714286" transform="matrix(1.4 0 0 1.4 -3771.19066 -1483.289938)"/><text font-family="Times New Roman" font-size="40" transform="matrix(1.4 0 0 1.4 -2173.9624554 -1242.0767)" x="1059.1068" y="1092.1652"><tspan x="1059.1068" y="1092.1652">10</tspan></text><path d="m-689.6875 281.6875c-16.73664 9.5913-25.0977 19.6062-27.78125 29.6875-2.55004 9.57974.11899 18.87497 4.875 27.25l-8.71875 4.78125 42.25 51.09375-20.21875-63.15625-9.78125 5.34375c-4.46012-7.82892-6.74058-15.98148-4.53125-24.28125 2.3212-8.72004 9.71205-17.96955 25.90625-27.25z" stroke="#fff" stroke-linecap="round"/><text id="s" font-family="Times New Roman" font-size="32" x="-1721.1112" y="578.3089"><tspan x="-1721.1112" y="578.3089">Raidillon</tspan><tspan x="-1721.1112" y="610.3089">Eau Rouge</tspan></text><path d="m-1836.3252 644.40671c-30.0457-21.62568 59.8591-105.64581 66.4544-112.25071 6.0714-6.0801 58.7055-38.82498 66.8935-41.59379 33.3451-11.27571 76.1458-8.02749 57.5467 29.46601-4.5552 9.1828-84.969 35.41939-90.1247 40.90298-29.9847 31.89139-75.0161 102.01206-100.7699 83.47551z" style="fill:#7b7bff;fill-opacity:.211765;stroke:#000096;stroke-width:2;stroke-linecap:round;stroke-linejoin:round;stroke-dasharray:6 6"/><path d="m2241.9491 1250.9447c0 11.2302-9.1039 20.3342-20.3341 20.3342-11.2303 0-20.3342-9.104-20.3342-20.3342s9.1039-20.3342 20.3342-20.3342c11.2302 0 20.3341 9.104 20.3341 20.3342z" fill="#fff" stroke="#0c0c0c" stroke-linecap="round" stroke-linejoin="round" stroke-width=".714286" transform="matrix(1.4 0 0 1.4 -4975.46096 -1231.653398)"/><text font-family="Times New Roman" font-size="40" transform="matrix(1.4 0 0 1.4 -3361.8128554 -990.44016)" x="1059.1068" y="1092.1652"><tspan x="1059.1068" y="1092.1652">3</tspan></text><path d="m1695.937 1398.5206h-24.4812l12.2406-21.2013z" stroke="#fff" stroke-linecap="round" stroke-width=".563265" transform="matrix(-.7254709 .725993 -2.1715416 -2.1715468 2418.0984 2359.2349)"/><path d="m2241.9491 1250.9447c0 11.2302-9.1039 20.3342-20.3341 20.3342-11.2303 0-20.3342-9.104-20.3342-20.3342s9.1039-20.3342 20.3342-20.3342c11.2302 0 20.3341 9.104 20.3341 20.3342z" fill="#fff" stroke="#0c0c0c" stroke-linecap="round" stroke-linejoin="round" stroke-width=".714286" transform="matrix(1.4 0 0 1.4 -4941.66076 -1299.253738)"/><text font-family="Times New Roman" font-size="40" transform="matrix(1.4 0 0 1.4 -3328.0126554 -1058.0405)" x="1059.1068" y="1092.1652"><tspan x="1059.1068" y="1092.1652">4</tspan></text><path d="m1695.937 1398.5206h-24.4812l12.2406-21.2013z" stroke="#fff" stroke-linecap="round" stroke-width=".563265" transform="matrix(-.7254709 .725993 -2.1715416 -2.1715468 2456.0726 2293.0536)"/><path d="m2241.9491 1250.9447c0 11.2302-9.1039 20.3342-20.3341 20.3342-11.2303 0-20.3342-9.104-20.3342-20.3342s9.1039-20.3342 20.3342-20.3342c11.2302 0 20.3341 9.104 20.3341 20.3342z" fill="#fff" stroke="#0c0c0c" stroke-linecap="round" stroke-linejoin="round" stroke-width=".714286" transform="matrix(1.4 0 0 1.4 -4845.89376 -1334.180638)"/><text font-family="Times New Roman" font-size="40" transform="matrix(1.4 0 0 1.4 -3232.2456554 -1092.9674)" x="1059.1068" y="1092.1652"><tspan x="1059.1068" y="1092.1652">5</tspan></text><g stroke-linecap="round"><path d="m1695.937 1398.5206h-24.4812l12.2406-21.2013z" stroke="#fff" stroke-width=".563265" transform="matrix(-.86530062 .55193179 -1.6505625 -2.589759 2049.6073 3138.1264)"/><path d="m-716.92153 971.53823c-6.62711 9.69552-13.59274 19.13001-21.4713 28.84437-4.8157 5.9378-10.91827 10.9691-17.56218 14.7515-5.85985 3.3361-12.17858 5.5609-18.70361 6.6785-9.41546 1.6128-18.9175 1.0666-28.26659-.1054-18.01915-2.2588-35.62573-7.4797-52.84459-13.2506-15.93641-5.3411-31.73219-11.51717-46.42122-19.68592-19.40702-10.79248-37.19441-24.40485-54.45184-38.37952-17.36931-14.06527-34.20019-28.98774-49.17914-45.57554-19.6266-21.73462-35.9563-46.2591-52.8558-70.17575-13.6581-19.32944-24.7379-40.46589-39.1928-59.20698-11.0578-14.33677-22.0725-29.16913-36.1918-40.50338-12.721-10.21177-28.0794-16.66964-42.6799-23.94491-15.2914-7.61955-30.8067-14.95927-46.9387-20.58441-26.3057-9.17263-53.357-16.60149-80.8164-21.30347-10.84-1.85618-21.9417-3.78639-32.8841-2.68396-10.9469 1.10289-21.5093 5.04819-31.701 9.1933-17.1354 6.96924-32.5314 17.62488-48.9573 26.13257-22.7858 11.80168-44.9891 24.96619-68.7912 34.55412-11.7934 4.7506-24.1638 7.95816-36.4349 11.28575-12.5672 3.40788-25.3224 6.0876-38.0413 8.87629-41.2206 9.03784-107.092 25.43683-124.0139 25.45509-3.4028.004-8.8068-3.63976-10.7571-7.56574-1.3172-2.65149.1623-5.91969.317-8.87629.321-6.13503 2.8721-12.45628 1.2681-18.3866-.8341-3.08385-2.7788-6.08362-5.3892-7.92525-2.0524-1.44794-4.7881-2.10965-7.2912-1.90207-4.384.36355-8.517 2.7635-12.0464 5.38918-24.1227 17.94583-43.815 34.20182-66.5093 50.22534" fill="none" stroke="#0ff" stroke-dasharray="10 10" stroke-linejoin="round" stroke-width="5"/><path d="m-1042.024 202.26715c22.6881-8.58731 44.78584-19.5641 68.54911-24.44216 4.97826-1.02192 10.25088-2.03266 15.2165-.95103 7.05353 1.53641 13.18102 5.45684 18.70361 9.82732 5.62536 4.4518 8.98322 10.71891 13.72938 15.85051 2.44332 2.64173 4.34429 5.40993 7.1933 7.29124 3.90756 2.58031 8.23097 3.99314 12.68041 4.75515 4.08707.69995 8.12389.25064 12.04639-.63402 13.47671-3.03945 25.34866-11.03439 38.31668-15.79783 7.63492-2.80447 15.21107-6.06974 23.21569-7.51304 6.25256-1.12739 12.84477-2.2351 19.04187-.83459 6.48144 1.46478 13.05132 4.55432 17.60471 9.35229 32.57422 34.32396 68.02275 76.28376 101.41094 114.96938 9.19604 10.6551 18.7466 21.03913 27.24162 32.26111 3.34682 4.42117 7.13555 8.68262 9.31992 13.77932 2.71702 6.33951 5.09616 13.35105 4.41688 20.21473-.54526 5.50943-3.39367 10.7443-6.65721 15.21649-2.79802 3.83426-6.5476 7.08539-10.68316 9.41512-4.23868 2.38782-9.10345 3.73203-13.92719 4.36421-4.1389.54243-8.47818.53765-12.51128-.53882-4.98042-1.32932-9.6397-3.98067-13.72664-7.12211-5.88512-4.52362-10.20033-10.79654-14.99469-16.46328-16.80602-19.86403-36.46855-48.67955-48.20682-61.39464-3.8937-4.21773-10.70563-5.85072-16.61115-6.84762-5.53122-.93371-11.35495-.39092-16.80155.95103-10.48889 2.5843-19.56952 9.16499-29.50322 13.40964-13.86635 5.92507-27.95673 11.31293-41.99323 16.8228-15.83221 6.21476-31.52489 12.83056-47.62548 18.31266-17.53362 5.97003-35.38844 10.97628-53.25773 15.85052-33.16096 9.04537-66.94416 15.70668-100.08016 24.84326-9.7944 2.7006-19.8704 4.75196-29.1649 8.85502-7.09 3.1299-13.9835 6.97978-19.9818 11.88742-5.0761 4.15307-10.0042 8.8603-13.2091 14.58247-3.9907 7.1253-5.5085 15.46241-6.8902 23.51144-1.2485 7.27362-1.1231 14.7272-1.2153 22.10663-.1087 8.70699-.2727 17.46774.7819 26.11131 1.2962 10.62416 3.285 21.26913 6.7839 31.38402 2.9508 8.53052 6.5939 17.01203 11.856 24.34601 3.5182 4.90342 8.2055 8.90703 12.881 12.72293 5.0928 4.15653 10.7589 7.57577 16.3893 10.96875 6.4793 3.90454 12.9479 7.96882 19.9717 10.77835 25.8772 10.35099 53.8898 14.26513 80.6685 21.99016 35.77334 10.31979 71.46774 20.95401 106.85272 32.53561 12.4506 4.07512 25.52589 6.84189 37.09021 12.99742 5.21868 2.77783 10.22039 6.24897 14.21279 10.60922 4.11526 4.49441 7.66833 9.777 9.60551 15.55476 2.00865 5.99092 2.42127 12.58714 1.77544 18.87274-.67802 6.59896-3.13674 12.75078-5.07216 19.02062-3.29403 10.67111-9.37446 20.57461-11.11663 31.60584-1.03499 6.55341-.95688 13.42418.49631 19.89771 1.54396 6.87791 4.43578 13.62044 8.55928 19.33763 1.83785 2.54817 4.42632 4.50198 6.97423 6.3402 16.6768 12.03165 35.0667 21.8406 53.77624 30.23245 25.09454 11.25573 53.03505 21.48818 74.86617 39.31943 5.17668 4.22822 9.8166 9.4941 12.68041 15.5335 2.49507 5.26178 3.93096 11.31213 3.48711 17.11856-.56373 7.37471-3.87614 14.4746-7.68218 20.81638-7.59472 12.65464-14.7645 24.14316-22.38148 35.28686" fill="none" stroke="#f00" stroke-dasharray="10 10" stroke-linejoin="round" stroke-width="5"/><path d="m-1785.7292 792.86845c-67.4631 47.6329-136.8716 92.50853-206.8599 136.34679-10.3037 6.45387-19.757 14.98157-31.3516 18.63984-4.0422 1.27539-8.9373 2.93985-12.6804.95103-3.0093-1.59895-4.7806-5.48102-5.0722-8.87629-.8187-9.53376 7.0404-21.07515 9.7848-26.98746 18.7684-40.4325 32.5731-75.25655 52.3492-111.10243 9.7931-17.75091 20.0392-35.44966 32.7158-51.27062 18.5455-23.14555 41.9063-41.98211 62.7681-63.06379 18.9528-19.15258 37.8814-38.3297 56.6921-57.62194 13.0861-13.42106 27.8076-25.46016 39.0764-40.4396 8.1158-10.78821 12.3066-24.14858 20.1823-35.11326 5.8625-8.16174 12.0461-16.40465 19.9717-22.58261 9.2179-7.18533 20.1804-12.05474 31.1401-16.11486 14.2066-5.26299 30.2284-4.67101 44.2326-10.45118 10.9909-4.53647 20.3412-11.6625 30.0033-18.28029 17.0568-11.68259 32.7571-25.23249 49.2299-37.72517 17.089-12.95998 34.0853-26.04969 51.461-38.62259 13.3104-9.63129 26.6578-19.23313 40.4294-28.19266 6.3654-4.14118 12.7691-8.25985 19.4855-11.80332 10.1861-5.37397 20.7582-10.02659 31.458-14.28671 28.2031-11.22903 57.5917-19.23915 86.1103-29.64094 108.264-39.48786 293.1142-113.21099 322.5788-124.36324" fill="none" stroke="#ff0" stroke-dasharray="10 10" stroke-linejoin="round" stroke-width="5"/></g></g></svg>